<svg width="48" height="48" viewBox="0 0 48 48" fill="none" xmlns="http://www.w3.org/2000/svg">
<circle cx="23.5" cy="23.5" r="22.5" fill="#1C90E9"/>
<path opacity="0.4" d="M30.8791 32.32C30.2833 33.8475 28.8316 34.8333 27.1958 34.8333H20.8041C19.1575 34.8333 17.7166 33.8475 17.1208 32.32C16.525 30.7817 16.9366 29.0808 18.15 27.9758L22.5375 24H25.4733L29.85 27.9758C31.0633 29.0808 31.4641 30.7817 30.8791 32.32Z" fill="white"/>
<path d="M25.9717 30.6516H22.0284C21.6167 30.6516 21.2917 30.3157 21.2917 29.9149C21.2917 29.5032 21.6275 29.1782 22.0284 29.1782H25.9717C26.3834 29.1782 26.7084 29.5141 26.7084 29.9149C26.7084 30.3157 26.3725 30.6516 25.9717 30.6516Z" fill="white"/>
<path d="M30.8792 15.6798C30.2833 14.1523 28.8317 13.1665 27.1958 13.1665H20.8042C19.1683 13.1665 17.7167 14.1523 17.1208 15.6798C16.5358 17.2182 16.9367 18.919 18.1608 20.024L22.5375 23.9998H25.4733L29.85 20.024C31.0633 18.919 31.4642 17.2182 30.8792 15.6798ZM25.9717 18.8323H22.0283C21.6167 18.8323 21.2917 18.4965 21.2917 18.0957C21.2917 17.6948 21.6275 17.359 22.0283 17.359H25.9717C26.3833 17.359 26.7083 17.6948 26.7083 18.0957C26.7083 18.4965 26.3725 18.8323 25.9717 18.8323Z" fill="white"/>
</svg>
