<svg width="60" height="60" viewBox="0 0 60 60" fill="none" xmlns="http://www.w3.org/2000/svg">
<rect width="60" height="60" rx="3" fill="#347442"/>
<g clip-path="url(#clip0)">
<path d="M30.5012 40.3756C30.5012 41.6875 30.8902 42.9698 31.619 44.0606C32.3479 45.1514 33.3838 46.0015 34.5958 46.5035C35.8077 47.0055 37.1414 47.1369 38.428 46.881C39.7147 46.625 40.8965 45.9933 41.8241 45.0657C42.7517 44.1381 43.3835 42.9562 43.6394 41.6696C43.8953 40.383 43.764 39.0493 43.2619 37.8373C42.7599 36.6254 41.9098 35.5894 40.819 34.8606C39.7283 34.1318 38.4459 33.7428 37.134 33.7428C35.3755 33.7449 33.6897 34.4443 32.4462 35.6878C31.2028 36.9312 30.5033 38.6171 30.5012 40.3756ZM39.3677 45.6119C38.6643 45.913 37.9074 46.0692 37.1423 46.0711C36.3771 46.073 35.6195 45.9207 34.9146 45.6231V43.9872C34.9146 43.2745 35.4998 42.6636 36.2125 42.6636H38.0807C38.7933 42.6636 39.3677 43.2745 39.3677 43.9872V45.6119ZM35.7825 39.2262C36.521 39.2262 37.1251 38.6012 37.1541 37.898H38.6646V39.4423C38.6646 40.2647 37.9636 40.9338 37.1411 40.9338C36.3187 40.9338 35.6177 40.2647 35.6177 39.4423V39.2262H35.7825ZM35.6177 38.2887V37.9935C35.6224 37.5961 35.7836 37.2167 36.0663 36.9374C36.349 36.6582 36.7305 36.5017 37.1279 36.502C37.3024 36.5167 37.4745 36.5526 37.6404 36.6089C37.8466 36.6741 38.0612 36.7088 38.2775 36.7119C38.3796 36.7113 38.4807 36.7333 38.5733 36.7763C38.666 36.8193 38.7481 36.8822 38.8137 36.9605H37.1002C36.8656 36.9619 36.6411 37.0561 36.4757 37.2224C36.3103 37.3887 36.2174 37.6138 36.2174 37.8483C36.2174 37.9642 36.1718 38.0754 36.0904 38.1578C36.009 38.2402 35.8984 38.2873 35.7825 38.2887H35.6177ZM42.8263 40.3756C42.8263 42.3409 41.8677 44.0768 40.3052 45.1008V43.9872C40.3052 42.7574 39.3103 41.7262 38.0807 41.7262H37.882C38.8629 41.4137 39.6021 40.5254 39.6021 39.4423V37.8668C39.6968 37.8324 39.7795 37.7711 39.8399 37.6904C39.9003 37.6096 39.9357 37.513 39.9419 37.4124C39.9399 36.9752 39.7649 36.5565 39.4551 36.248C39.1453 35.9394 38.7259 35.7661 38.2887 35.7658C38.1656 35.7656 38.0431 35.7474 37.9253 35.7117C37.668 35.6265 37.4002 35.5769 37.1295 35.5644C36.4834 35.5643 35.8634 35.8196 35.4046 36.2746C34.9459 36.7296 34.6855 37.3474 34.6802 37.9935V39.4423C34.6802 40.5254 35.4302 41.4137 36.4111 41.7262H36.2125C34.9829 41.7262 33.9771 42.7574 33.9771 43.9872V45.1168C33.1908 44.6021 32.5462 43.8984 32.1023 43.0701C31.6584 42.2418 31.4293 41.3154 31.436 40.3757C31.436 38.8652 32.036 37.4166 33.1041 36.3485C34.1722 35.2804 35.6208 34.6804 37.1313 34.6804C38.6418 34.6804 40.0904 35.2804 41.1585 36.3485C42.2266 37.4166 42.8266 38.8652 42.8266 40.3757L42.8263 40.3756Z" fill="white"/>
<path d="M38.5069 43.3668H38.1267C38.0024 43.3668 37.8832 43.4162 37.7953 43.5041C37.7073 43.592 37.658 43.7113 37.658 43.8356C37.658 43.9599 37.7073 44.0791 37.7953 44.167C37.8832 44.2549 38.0024 44.3043 38.1267 44.3043H38.5069C38.6313 44.3043 38.7505 44.2549 38.8384 44.167C38.9263 44.0791 38.9757 43.9599 38.9757 43.8356C38.9757 43.7113 38.9263 43.592 38.8384 43.5041C38.7505 43.4162 38.6313 43.3668 38.5069 43.3668Z" fill="white"/>
<path d="M15.1489 15.1043C15.2732 15.1043 15.3925 15.0549 15.4804 14.967C15.5683 14.8791 15.6177 14.7599 15.6177 14.6356V14.3434C15.6177 14.2191 15.5683 14.0998 15.4804 14.0119C15.3925 13.924 15.2732 13.8746 15.1489 13.8746C15.0246 13.8746 14.9054 13.924 14.8175 14.0119C14.7296 14.0998 14.6802 14.2191 14.6802 14.3434V14.6356C14.6802 14.7599 14.7296 14.8791 14.8175 14.967C14.9054 15.0549 15.0246 15.1043 15.1489 15.1043Z" fill="white"/>
<path d="M15.6177 20.2849V16.3318C15.6177 16.2075 15.5683 16.0882 15.4804 16.0003C15.3925 15.9124 15.2732 15.863 15.1489 15.863C15.0246 15.863 14.9054 15.9124 14.8175 16.0003C14.7296 16.0882 14.6802 16.2075 14.6802 16.3318V20.2849C14.6802 20.4092 14.7296 20.5285 14.8175 20.6164C14.9054 20.7043 15.0246 20.7537 15.1489 20.7537C15.2732 20.7537 15.3925 20.7043 15.4804 20.6164C15.5683 20.5285 15.6177 20.4092 15.6177 20.2849Z" fill="white"/>
<path d="M23.7607 29.8512H33.2151C33.3394 29.8512 33.4587 29.8018 33.5466 29.7139C33.6345 29.626 33.6839 29.5068 33.6839 29.3824C33.6839 29.2581 33.6345 29.1389 33.5466 29.051C33.4587 28.9631 33.3394 28.9137 33.2151 28.9137H23.7607C23.6364 28.9137 23.5172 28.9631 23.4293 29.051C23.3414 29.1389 23.292 29.2581 23.292 29.3824C23.292 29.5068 23.3414 29.626 23.4293 29.7139C23.5172 29.8018 23.6364 29.8512 23.7607 29.8512Z" fill="white"/>
<path d="M18.9902 29.293L17.9372 30.2998L17.5085 29.8711C17.4649 29.8276 17.4133 29.793 17.3564 29.7695C17.2995 29.7459 17.2385 29.7338 17.177 29.7338C17.1154 29.7338 17.0545 29.7459 16.9976 29.7695C16.9407 29.7931 16.8891 29.8276 16.8455 29.8711C16.802 29.9147 16.7675 29.9663 16.7439 30.0232C16.7204 30.0801 16.7082 30.141 16.7083 30.2026C16.7083 30.2642 16.7204 30.3251 16.7439 30.382C16.7675 30.4389 16.802 30.4905 16.8456 30.5341L17.5984 31.2869C17.685 31.3735 17.8021 31.4228 17.9246 31.4242C18.0471 31.4255 18.1653 31.3789 18.2539 31.2942L19.6381 29.9707C19.6826 29.9281 19.7183 29.8773 19.7431 29.8209C19.7679 29.7646 19.7814 29.7039 19.7828 29.6424C19.7842 29.5808 19.7734 29.5196 19.7511 29.4622C19.7289 29.4048 19.6955 29.3524 19.653 29.3079C19.6104 29.2634 19.5595 29.2277 19.5032 29.2029C19.4469 29.1781 19.3862 29.1646 19.3247 29.1632C19.2631 29.1618 19.2019 29.1726 19.1445 29.1949C19.0871 29.2171 19.0347 29.2505 18.9902 29.293Z" fill="white"/>
<path d="M18.2456 27.0891C17.6119 27.0891 16.9923 27.277 16.4654 27.6291C15.9384 27.9812 15.5277 28.4817 15.2852 29.0672C15.0426 29.6527 14.9792 30.297 15.1028 30.9186C15.2265 31.5402 15.5317 32.1112 15.9798 32.5593C16.4279 33.0075 16.9989 33.3126 17.6205 33.4363C18.2421 33.5599 18.8864 33.4965 19.4719 33.2539C20.0574 33.0114 20.5579 32.6007 20.91 32.0737C21.2621 31.5468 21.45 30.9272 21.45 30.2935C21.449 29.4439 21.1111 28.6294 20.5104 28.0287C19.9097 27.428 19.0952 27.0901 18.2456 27.0891ZM18.2456 32.5604C17.7973 32.5604 17.359 32.4274 16.9862 32.1783C16.6134 31.9292 16.3229 31.5752 16.1513 31.161C15.9797 30.7468 15.9349 30.291 16.0223 29.8512C16.1098 29.4115 16.3257 29.0076 16.6427 28.6906C16.9597 28.3735 17.3637 28.1576 17.8034 28.0702C18.2431 27.9827 18.6989 28.0276 19.1131 28.1992C19.5274 28.3707 19.8814 28.6613 20.1305 29.0341C20.3796 29.4069 20.5125 29.8451 20.5125 30.2935C20.5118 30.8945 20.2728 31.4707 19.8478 31.8956C19.4228 32.3206 18.8466 32.5597 18.2456 32.5604Z" fill="white"/>
<path d="M23.7607 31.4137H30.0636C30.188 31.4137 30.3072 31.3643 30.3951 31.2764C30.483 31.1885 30.5324 31.0693 30.5324 30.9449C30.5324 30.8206 30.483 30.7014 30.3951 30.6135C30.3072 30.5256 30.188 30.4762 30.0636 30.4762H23.7607C23.6364 30.4762 23.5172 30.5256 23.4293 30.6135C23.3414 30.7014 23.292 30.8206 23.292 30.9449C23.292 31.0693 23.3414 31.1885 23.4293 31.2764C23.5172 31.3643 23.6364 31.4137 23.7607 31.4137Z" fill="white"/>
<path d="M18.9904 36.3838L17.9374 37.3903L17.5087 36.9616C17.4205 36.8749 17.3017 36.8265 17.178 36.827C17.0544 36.8275 16.9359 36.8769 16.8485 36.9643C16.761 37.0517 16.7117 37.1702 16.7112 37.2938C16.7107 37.4175 16.7591 37.5363 16.8458 37.6245L17.5987 38.3773C17.6853 38.4639 17.8024 38.5132 17.9249 38.5146C18.0474 38.5159 18.1655 38.4693 18.2541 38.3847L19.6383 37.0611C19.7282 36.9752 19.7802 36.8571 19.783 36.7328C19.7858 36.6085 19.7391 36.4882 19.6532 36.3984C19.5673 36.3085 19.4492 36.2564 19.3249 36.2537C19.2006 36.2509 19.0803 36.2976 18.9904 36.3835V36.3838Z" fill="white"/>
<path d="M18.2456 34.1799C17.6119 34.1799 16.9923 34.3679 16.4654 34.72C15.9384 35.0721 15.5277 35.5725 15.2852 36.1581C15.0426 36.7436 14.9792 37.3879 15.1028 38.0095C15.2265 38.631 15.5317 39.202 15.9798 39.6502C16.4279 40.0983 16.9989 40.4035 17.6205 40.5271C18.2421 40.6508 18.8864 40.5873 19.4719 40.3448C20.0574 40.1022 20.5579 39.6915 20.91 39.1646C21.2621 38.6376 21.45 38.0181 21.45 37.3843C21.449 36.5348 21.1111 35.7203 20.5104 35.1195C19.9097 34.5188 19.0952 34.1809 18.2456 34.1799ZM18.2456 39.6512C17.7973 39.6512 17.359 39.5182 16.9862 39.2692C16.6134 39.0201 16.3229 38.666 16.1513 38.2518C15.9797 37.8376 15.9349 37.3818 16.0223 36.9421C16.1098 36.5023 16.3257 36.0984 16.6427 35.7814C16.9597 35.4644 17.3637 35.2485 17.8034 35.161C18.2431 35.0735 18.6989 35.1184 19.1131 35.29C19.5274 35.4616 19.8814 35.7521 20.1305 36.1249C20.3796 36.4977 20.5125 36.936 20.5125 37.3843C20.5118 37.9853 20.2728 38.5615 19.8478 38.9865C19.4228 39.4115 18.8466 39.6505 18.2456 39.6512Z" fill="white"/>
<path d="M23.7607 22.7418H33.2151C33.3394 22.7418 33.4587 22.6924 33.5466 22.6045C33.6345 22.5166 33.6839 22.3974 33.6839 22.2731C33.6839 22.1488 33.6345 22.0295 33.5466 21.9416C33.4587 21.8537 33.3394 21.8043 33.2151 21.8043H23.7607C23.6364 21.8043 23.5172 21.8537 23.4293 21.9416C23.3414 22.0295 23.292 22.1488 23.292 22.2731C23.292 22.3974 23.3414 22.5166 23.4293 22.6045C23.5172 22.6924 23.6364 22.7418 23.7607 22.7418Z" fill="white"/>
<path d="M18.9904 22.2022L17.9374 23.209L17.5087 22.7803C17.4205 22.6936 17.3017 22.6452 17.178 22.6457C17.0544 22.6462 16.9359 22.6956 16.8485 22.783C16.761 22.8705 16.7117 22.9889 16.7112 23.1126C16.7107 23.2362 16.7591 23.3551 16.8458 23.4432L17.5987 24.196C17.6853 24.2827 17.8024 24.3319 17.9249 24.3333C18.0474 24.3347 18.1655 24.288 18.2541 24.2034L19.6383 22.8799C19.6828 22.8373 19.7185 22.7864 19.7433 22.7301C19.7681 22.6738 19.7816 22.6131 19.783 22.5516C19.7844 22.49 19.7736 22.4288 19.7513 22.3714C19.7291 22.314 19.6957 22.2616 19.6532 22.2171C19.6106 22.1726 19.5597 22.1369 19.5034 22.1121C19.4471 22.0873 19.3864 22.0738 19.3249 22.0724C19.2633 22.071 19.2021 22.0818 19.1447 22.104C19.0873 22.1263 19.0349 22.1597 18.9904 22.2022Z" fill="white"/>
<path d="M18.2456 19.9984C17.6119 19.9984 16.9923 20.1863 16.4654 20.5384C15.9384 20.8905 15.5277 21.391 15.2852 21.9765C15.0426 22.562 14.9792 23.2063 15.1028 23.8279C15.2265 24.4495 15.5317 25.0205 15.9798 25.4686C16.4279 25.9168 16.9989 26.2219 17.6205 26.3456C18.2421 26.4692 18.8864 26.4058 19.4719 26.1632C20.0574 25.9207 20.5579 25.51 20.91 24.983C21.2621 24.4561 21.45 23.8366 21.45 23.2028C21.449 22.3532 21.1111 21.5388 20.5104 20.938C19.9097 20.3373 19.0952 19.9994 18.2456 19.9984ZM18.2456 25.4697C17.7973 25.4697 17.359 25.3367 16.9862 25.0876C16.6134 24.8385 16.3229 24.4845 16.1513 24.0703C15.9797 23.6561 15.9349 23.2003 16.0223 22.7605C16.1098 22.3208 16.3257 21.9169 16.6427 21.5999C16.9597 21.2828 17.3637 21.0669 17.8034 20.9795C18.2431 20.892 18.6989 20.9369 19.1131 21.1085C19.5274 21.28 19.8814 21.5706 20.1305 21.9434C20.3796 22.3162 20.5125 22.7544 20.5125 23.2028C20.5118 23.8038 20.2728 24.38 19.8478 24.805C19.4228 25.2299 18.8466 25.469 18.2456 25.4697Z" fill="white"/>
<path d="M23.7607 24.3043H30.0636C30.188 24.3043 30.3072 24.2549 30.3951 24.167C30.483 24.0791 30.5324 23.9599 30.5324 23.8356C30.5324 23.7113 30.483 23.592 30.3951 23.5041C30.3072 23.4162 30.188 23.3668 30.0636 23.3668H23.7607C23.6364 23.3668 23.5172 23.4162 23.4293 23.5041C23.3414 23.592 23.292 23.7113 23.292 23.8356C23.292 23.9599 23.3414 24.0791 23.4293 24.167C23.5172 24.2549 23.6364 24.3043 23.7607 24.3043Z" fill="white"/>
<path d="M41.8431 31.8771L39.3142 30.901C39.2241 30.8662 39.1254 30.8602 39.0317 30.8837C38.938 30.9071 38.8539 30.959 38.7908 31.0321L37.9769 31.9756C37.8682 31.9646 37.7594 31.9564 37.6505 31.9494L37.5849 19.9318C37.5846 19.8701 37.5722 19.8091 37.5483 19.7522C37.5244 19.6954 37.4895 19.6438 37.4457 19.6004L28.9729 11.2262C28.7408 10.997 28.4273 10.8691 28.1011 10.8707L16.2495 10.9254C15.2186 10.9316 14.2322 11.3464 13.5068 12.0789C12.7813 12.8113 12.376 13.8016 12.3797 14.8325L12.5009 40.0357C12.5068 41.0643 12.9187 42.0489 13.6471 42.7752C14.3754 43.5015 15.3612 43.9107 16.3898 43.9137H16.4086L27.8937 43.8382L28.6894 45.6566C28.7282 45.7455 28.7937 45.8201 28.8768 45.8701C28.9599 45.9202 29.0564 45.9433 29.1532 45.9361L30.409 45.8439C30.8697 46.4265 31.4102 46.9413 32.0145 47.3732L31.9776 48.6271C31.9748 48.724 32.0021 48.8195 32.0558 48.9003C32.1095 48.981 32.1869 49.0432 32.2774 49.0781L34.8062 50.0543C34.8964 50.0891 34.995 50.0951 35.0887 50.0716C35.1824 50.0481 35.2666 49.9963 35.3297 49.9232L36.1436 48.9797C36.881 49.0541 37.6248 49.0349 38.3572 48.9225L39.2281 49.8305C39.2945 49.8998 39.3806 49.947 39.4747 49.9657C39.5688 49.9845 39.6664 49.974 39.7543 49.9355L42.2386 48.8486C42.3275 48.8098 42.4021 48.7443 42.4522 48.6612C42.5023 48.5781 42.5254 48.4816 42.5183 48.3848L42.426 47.1289C43.0088 46.6681 43.5237 46.1275 43.9557 45.5231L45.2095 45.56C45.3065 45.5627 45.4019 45.5354 45.4827 45.4817C45.5635 45.428 45.6256 45.3506 45.6606 45.2601L46.6365 42.7314C46.6713 42.6413 46.6773 42.5426 46.6539 42.4489C46.6304 42.3552 46.5786 42.2711 46.5055 42.2079L45.5622 41.3939C45.6366 40.6565 45.6174 39.9127 45.505 39.1802L46.413 38.3093C46.4823 38.2429 46.5295 38.1569 46.5483 38.0628C46.567 37.9687 46.5565 37.8711 46.518 37.7832L45.4311 35.2988C45.3923 35.2099 45.3268 35.1353 45.2437 35.0852C45.1606 35.0351 45.0641 35.0121 44.9673 35.0192L43.7113 35.1114C43.2506 34.5287 42.71 34.0138 42.1057 33.5819L42.1426 32.3282C42.1454 32.2312 42.1182 32.1358 42.0645 32.055C42.0109 31.9742 41.9335 31.9121 41.8431 31.8771ZM35.9865 19.4774L31.8754 19.5387H31.8611C31.0796 19.5343 30.3314 19.2218 29.7789 18.6691C29.2264 18.1164 28.9143 17.3681 28.9102 16.5866L28.891 12.4644L35.9865 19.4774ZM27.7072 42.6458C27.6351 42.7153 27.5872 42.8061 27.5705 42.9048L16.4036 42.9762H16.3894C15.6086 42.9734 14.8605 42.6623 14.3079 42.1107C13.7552 41.5592 13.4428 40.8117 13.4384 40.0309L13.3172 14.8322C13.3143 14.0496 13.6218 13.2978 14.1724 12.7416C14.7229 12.1854 15.4715 11.8702 16.2541 11.865L27.95 11.8079L27.9729 16.5911C27.9785 17.6204 28.3901 18.6058 29.1181 19.3333C29.8462 20.0608 30.832 20.4715 31.8612 20.4762H31.8801L36.6496 20.4293L36.7126 31.9408C36.3944 31.9543 36.0773 31.9851 35.7626 32.033L34.8917 31.1247C34.8253 31.0554 34.7392 31.0082 34.6451 30.9894C34.551 30.9706 34.4534 30.9812 34.3655 31.0197L31.8811 32.1066C31.7923 32.1455 31.7177 32.211 31.6676 32.2941C31.6175 32.3771 31.5944 32.4737 31.6015 32.5704L31.6939 33.8262C31.1112 34.287 30.5963 34.8275 30.1644 35.4319L28.9106 35.395C28.8136 35.392 28.7181 35.4192 28.6372 35.473C28.5564 35.5267 28.4943 35.6042 28.4595 35.6948L28.3625 35.9462C28.3547 35.9457 28.3461 35.945 28.3377 35.945H23.7607C23.6364 35.945 23.5171 35.9944 23.4292 36.0823C23.3413 36.1702 23.2919 36.2894 23.2919 36.4137C23.2919 36.538 23.3413 36.6573 23.4292 36.7452C23.5171 36.8331 23.6364 36.8825 23.7607 36.8825H28.0011L27.7599 37.5075H23.7607C23.6364 37.5075 23.5171 37.5569 23.4292 37.6448C23.3413 37.7327 23.2919 37.8519 23.2919 37.9762C23.2919 38.1005 23.3413 38.2198 23.4292 38.3077C23.5171 38.3956 23.6364 38.445 23.7607 38.445H27.4556C27.4686 38.5622 27.5254 38.6702 27.6146 38.7473L28.5581 39.5614C28.4837 40.2988 28.503 41.0425 28.6154 41.775L27.7072 42.6458ZM43.1163 35.8761C43.1634 35.9398 43.2258 35.9904 43.2977 36.0234C43.3696 36.0564 43.4487 36.0707 43.5276 36.0649L44.7052 35.9783L45.528 37.859L44.6772 38.675C44.6213 38.7286 44.5795 38.7953 44.5557 38.8691C44.5318 38.9428 44.5266 39.0214 44.5406 39.0976C44.6873 39.899 44.7084 40.7182 44.6031 41.5261C44.5931 41.603 44.6024 41.6812 44.63 41.7537C44.6577 41.8262 44.703 41.8907 44.7617 41.9414L45.6429 42.7018L44.9052 44.6132L43.7283 44.5786C43.6489 44.5763 43.5702 44.5943 43.4996 44.6307C43.429 44.6672 43.3687 44.721 43.3246 44.7871C42.8756 45.4613 42.3128 46.0523 41.6612 46.5336C41.5976 46.5806 41.5469 46.643 41.5139 46.7149C41.4809 46.7868 41.4667 46.8659 41.4725 46.9448L41.559 48.1225L39.6785 48.9454L38.8626 48.0946C38.8089 48.0386 38.7422 47.9968 38.6685 47.9729C38.5947 47.9491 38.5162 47.9439 38.4399 47.9579C37.6385 48.1045 36.8193 48.1255 36.0115 48.0204C35.9345 48.0104 35.8563 48.0196 35.7838 48.0473C35.7113 48.0749 35.6468 48.1202 35.5961 48.179L34.8358 49.0604L32.9245 48.3227L32.9591 47.1459C32.9614 47.0664 32.9435 46.9877 32.9071 46.9171C32.8706 46.8464 32.8167 46.7863 32.7506 46.7422C32.0764 46.2932 31.4854 45.7303 31.0041 45.0788C30.957 45.0152 30.8946 44.9646 30.8227 44.9316C30.7508 44.8986 30.6718 44.8843 30.5929 44.89L29.4153 44.9766L28.5923 43.0958L29.4431 42.2799C29.4991 42.2262 29.5408 42.1595 29.5647 42.0858C29.5885 42.012 29.5937 41.9335 29.5797 41.8572C29.4331 41.0559 29.412 40.2366 29.5172 39.4288C29.5272 39.3518 29.518 39.2736 29.4903 39.2011C29.4626 39.1286 29.4173 39.0642 29.3586 39.0135L28.4769 38.2532L29.2146 36.3419L30.3914 36.3765C30.4708 36.3784 30.5494 36.3603 30.62 36.3239C30.6905 36.2874 30.7508 36.2338 30.7952 36.1679C31.2442 35.4937 31.807 34.9028 32.4585 34.4215C32.5221 34.3745 32.5728 34.3121 32.6058 34.2402C32.6388 34.1683 32.653 34.0892 32.6472 34.0103L32.5608 32.8327L34.4415 32.0098L35.2574 32.8607C35.3111 32.9166 35.3778 32.9584 35.4515 32.9822C35.5253 33.0061 35.6038 33.0113 35.6801 32.9973C36.4815 32.8506 37.3009 32.8295 38.1089 32.9348C38.1858 32.9447 38.264 32.9355 38.3365 32.9078C38.409 32.8801 38.4735 32.8349 38.5243 32.7762L39.2846 31.8948L41.1957 32.6325L41.161 33.8093C41.1587 33.8887 41.1766 33.9675 41.2131 34.0381C41.2496 34.1088 41.3034 34.169 41.3696 34.2131C42.0439 34.6619 42.6349 35.2247 43.1163 35.8761Z" fill="white"/>
</g>
<defs>
<clipPath id="clip0">
<rect width="40" height="40" fill="white" transform="translate(9.52393 10.4762)"/>
</clipPath>
</defs>
</svg>
