<svg width="25" height="25" viewBox="0 0 25 25" fill="none" xmlns="http://www.w3.org/2000/svg">
<g clip-path="url(#clip0)">
<path d="M12.4992 24.9999C19.4023 24.9999 24.9983 19.4039 24.9983 12.5008C24.9983 5.59766 19.4023 0.00158691 12.4992 0.00158691C5.59607 0.00158691 0 5.59766 0 12.5008C0 19.4039 5.59607 24.9999 12.4992 24.9999Z" fill="#65B1EF"/>
<path d="M6.42482 22.9886C6.42247 22.9933 6.41934 22.9964 6.41699 23.0011C6.43577 23.0058 6.45376 23.0121 6.47254 23.016L6.42482 22.9886Z" fill="#E9EFF4"/>
<path d="M5.63832 5.3717L5.61328 5.32085C5.82217 5.28955 5.83626 5.14247 5.99508 5.08848C6.17581 5.02902 6.114 5.09396 6.2916 5.08848C6.43555 5.08222 6.52318 5.18706 6.68748 5.11039C6.64758 5.1808 6.58264 5.22931 6.5177 5.27704C6.38235 5.37327 6.24387 5.47185 6.0827 5.5094C5.92154 5.54617 5.7322 5.50705 5.63832 5.3717Z" fill="#E9EFF4"/>
<path d="M8.13897 16.513C8.13584 16.6233 8.07091 16.7196 8.01458 16.8127C7.76343 17.2226 7.61087 17.6975 7.57723 18.1787C7.54359 18.6395 7.56393 19.2075 7.16257 19.4344C6.93334 19.5619 6.611 19.5392 6.45844 19.7544C6.41071 19.8193 6.38803 19.9015 6.36534 19.9781C6.26676 20.3372 6.1674 20.6964 6.06882 21.0555C5.94129 21.0445 5.81142 21.0304 5.68467 21.0163C5.83489 21.0641 5.93894 21.2675 5.84897 21.4067C5.70501 21.3309 5.51568 21.4208 5.43588 21.5656C5.35999 21.7095 5.37094 21.8848 5.41319 22.0436C5.54385 22.513 5.9452 22.8917 6.41776 23.0044C6.33561 23.16 6.08446 23.092 5.93112 22.9879C4.83658 22.2478 4.0104 21.1204 3.63329 19.8537C3.50029 19.407 3.41501 18.9321 3.15448 18.548C2.93698 18.2233 2.60839 17.9854 2.39089 17.6608C2.08576 17.1945 2.02865 16.5897 1.67502 16.1633C1.47708 15.92 1.17117 15.6211 1.34642 15.3606C1.41684 15.2534 1.56705 15.1517 1.50759 15.0382C1.48803 15.0015 1.44813 14.9788 1.41684 14.9475C1.29792 14.82 1.38006 14.6197 1.43952 14.4554C1.5381 14.1698 1.5381 13.8647 1.49586 13.5596C1.19855 13.2936 0.963843 12.9634 0.816757 12.5926C0.729131 12.3664 0.612558 12.084 0.370023 12.0809C0.307433 11.9056 0.242496 11.7304 0.179906 11.5551C0.157217 11.6177 0.0954101 11.6568 0.0273438 11.6654C0.215113 8.80118 1.36989 6.20214 3.167 4.18831C3.2069 4.1711 3.24602 4.14841 3.28592 4.12573C3.71231 3.87693 4.05186 3.50374 4.46417 3.23226C4.54867 3.17593 4.6449 3.12194 4.74974 3.1329C4.85145 3.1415 4.94768 3.24556 4.91091 3.34179C4.89682 3.38169 4.86318 3.41298 4.82876 3.43802C4.34604 3.84877 3.81715 4.20787 3.25463 4.50518C3.18734 4.53882 3.11615 4.57872 3.08563 4.64678C3.02852 4.76258 3.12475 4.90653 3.2468 4.94878C3.36807 4.99103 3.5042 4.96599 3.6286 4.93783C3.52376 5.08726 3.49247 5.28833 3.54645 5.46358C3.66224 5.47453 3.69901 5.31649 3.73344 5.20618C3.87427 4.76805 4.57292 4.58967 4.52755 4.12807C4.71688 4.22665 4.90934 4.00602 5.02513 3.82529C5.14092 3.64144 5.39833 3.46071 5.53993 3.62188C5.54776 3.71185 5.55871 3.80261 5.56732 3.89336C5.81611 3.83077 6.06804 3.76583 6.31683 3.70324C6.17522 3.80261 6.1275 4.01463 6.20886 4.16719C6.29101 4.31975 6.49443 4.39643 6.6556 4.33384C6.65325 4.46684 6.53433 4.56855 6.42636 4.64757C6.15253 4.85411 5.85836 5.06614 5.53915 5.16784L5.61269 5.32041C5.60487 5.32354 5.59627 5.32667 5.58766 5.32667C5.38424 5.34622 5.16909 5.19992 4.95159 5.22809C4.81859 5.2453 4.65507 5.2453 4.5784 5.38065C4.56745 5.39786 4.51972 5.63492 4.55336 5.61536C4.67228 5.54729 4.79042 5.47923 4.907 5.41194C4.94298 5.50818 4.95159 5.61536 4.93203 5.7202C5.07599 5.70612 5.2262 5.73663 5.35373 5.8133C5.22073 6.12155 4.87883 6.3281 4.54241 6.30228C4.53928 6.20057 4.5338 6.09887 4.53067 5.99716C4.25372 5.97447 4.02761 6.21231 3.88913 6.45015C3.7483 6.69034 3.64112 6.96495 3.40875 7.11751C3.26793 7.21375 3.09502 7.25052 2.94246 7.32954C2.79303 7.41169 2.65455 7.56738 2.68584 7.73402C2.69993 7.81304 2.75078 7.88659 2.74843 7.96873C2.73983 8.1213 2.56223 8.19249 2.44331 8.29107C2.23989 8.46085 2.18904 8.77223 1.97154 8.92166C1.8135 9.03198 1.60382 9.02963 1.41997 9.08596C1.23611 9.14229 1.05225 9.32615 1.12658 9.50453C1.03582 9.53583 0.925506 9.46776 0.9169 9.37153C0.592216 10.0107 0.377846 10.7063 0.290221 11.419C0.451389 11.5317 0.614905 11.2743 0.6462 11.0794C0.679842 10.8846 0.849616 10.6296 1.00766 10.7454C0.970884 11.0255 0.934113 11.3024 0.898123 11.5825C0.889517 11.6365 0.884041 11.6928 0.909859 11.7405C0.941154 11.8 1.00844 11.825 1.06007 11.8673C1.20403 11.9917 1.18447 12.2123 1.19308 12.4017C1.20168 12.6332 1.27836 12.8593 1.39962 13.0573C1.38789 13.0174 1.38006 12.9783 1.37146 12.9384C1.59209 12.9665 1.82132 12.8953 1.98797 12.7482C2.07559 12.6692 2.14914 12.5675 2.25945 12.5276C2.37289 12.4854 2.49729 12.5159 2.61308 12.5472C2.97219 12.6458 3.35399 12.7561 3.59418 13.0385C3.71544 13.1825 3.79212 13.364 3.93686 13.4821C4.26467 13.7591 4.81937 13.637 5.11902 13.9453C5.35921 14.1941 5.31461 14.5954 5.24967 14.9373C5.08538 14.8473 4.86553 15.0735 4.96176 15.2346C5.04939 15.1384 5.1511 15.0367 5.27862 15.0367C5.4085 15.0336 5.52194 15.2119 5.42571 15.2941C5.65181 15.0054 6.20573 15.1243 6.29336 15.4834C6.61022 15.5061 6.92943 15.528 7.24629 15.5538C7.18526 16.0186 8.15853 16.0459 8.13897 16.513Z" fill="#E9EFF4"/>
<path d="M6.21192 3.43225C6.08987 3.49249 5.92166 3.42442 5.87628 3.29612C5.83012 3.16781 5.91697 3.00899 6.04997 2.97847C6.13368 2.95891 6.25026 2.9683 6.27607 2.88615C6.2839 2.86112 6.2792 2.83373 6.2792 2.80792C6.27607 2.65301 6.41456 2.5247 6.56399 2.48558C6.71342 2.44724 6.87146 2.47697 7.02324 2.5067C7.07723 2.61858 7.09287 2.74846 7.06705 2.86972C6.963 2.87442 6.85894 2.87833 6.75489 2.88302C6.76428 3.05593 6.74706 3.27343 6.58668 3.33758C6.44272 3.39469 6.25495 3.28829 6.13525 3.38531" fill="#E9EFF4"/>
<path d="M7.83228 1.70569C8.11628 1.56956 8.35646 1.35519 8.63655 1.21123C9.11849 0.964003 9.68102 0.942096 10.2224 0.924884C11.4547 0.886548 12.6869 0.848212 13.9191 0.809875C13.6336 0.96635 13.348 1.12361 13.0616 1.28008C12.8285 1.40839 12.5633 1.53983 12.3074 1.46707C12.302 1.67283 12.489 1.86373 12.6955 1.86217C12.1893 2.17511 11.4867 1.85512 10.9524 2.118C10.7286 2.22832 10.5479 2.43643 10.3014 2.47555C10.159 2.49823 10.0112 2.4599 9.86957 2.49119C9.63251 2.54283 9.48308 2.76737 9.30783 2.9348C9.10598 3.12804 8.80946 3.26027 8.5458 3.16795C8.28214 3.07563 8.14444 2.68366 8.35568 2.50058C8.45974 2.41061 8.60839 2.39574 8.73122 2.33237C8.85405 2.26978 8.95107 2.10157 8.85875 1.99908C8.81885 1.95449 8.75313 1.93727 8.71636 1.88955C8.67645 1.83791 8.68037 1.76437 8.64751 1.70804C8.52233 1.48819 8.17417 1.78393 7.93711 1.69552" fill="#E9EFF4"/>
<path d="M11.5745 2.74525C11.7411 2.70692 11.8858 2.60834 12.0415 2.53636C12.1972 2.46438 12.3827 2.42213 12.5352 2.49802C12.5806 2.61147 12.4499 2.71474 12.3349 2.75543C12.1143 2.83288 11.8749 2.854 11.6441 2.81567" fill="#E9EFF4"/>
<path d="M21.6491 3.9886C21.6038 3.99408 21.556 3.99173 21.5075 3.97999C21.2955 3.93462 21.1343 3.7711 20.9528 3.65218C20.5343 3.37522 19.9631 3.33923 19.5109 3.56534C19.6181 3.40964 19.6721 3.21718 19.6603 3.02785L19.5954 3.05054C18.8545 2.62101 17.9861 2.17506 17.1779 2.46376C16.9909 2.53182 16.8219 2.63353 16.6326 2.69847C16.4315 2.76888 16.2085 2.79783 16.0364 2.92223C15.8612 3.04662 15.768 3.32124 15.9183 3.47067C16.0458 3.5982 16.2492 3.56377 16.4276 3.58098C16.6028 3.5982 16.8039 3.77266 16.7077 3.92288C15.9331 4.28512 15.1562 4.65049 14.3817 5.01585C14.7377 5.13164 14.9732 5.53535 14.8965 5.90306C14.636 5.94844 14.3848 5.7904 14.1219 5.77319C13.7401 5.75363 13.3756 6.09005 13.3677 6.47185C13.3568 6.85364 13.7073 7.20649 14.0891 7.20102C14.3746 7.19789 14.6547 7.02577 14.9317 7.09853C14.9426 6.838 15.121 6.61737 15.3041 6.43116C15.6601 6.0744 16.1686 5.75207 16.6443 5.92732C16.8 5.98365 16.933 6.08848 17.0629 6.19254C17.3484 6.41865 17.634 6.6471 17.9204 6.87633C18.0111 6.78323 18.1011 6.68935 18.1918 6.59937C18.3475 6.76367 18.5032 6.92719 18.6613 7.09383C18.7403 7.03985 18.8224 6.98899 18.9014 6.93501C18.9578 7.0821 19.0172 7.22605 19.0744 7.37314C19.097 7.21197 19.1166 7.05393 19.1362 6.89511C19.3231 6.90059 19.5211 6.90606 19.6901 6.82157C19.8599 6.73942 19.9843 6.536 19.9131 6.36075C19.8763 6.26765 19.7887 6.1941 19.7714 6.09474C19.7347 5.8968 20.0171 5.76145 20.201 5.85143C20.3817 5.93905 20.4725 6.1456 20.5491 6.33493C20.5914 6.14247 20.6305 5.95313 20.6735 5.76067C20.8503 6.2254 21.1054 6.6604 21.4223 7.0422C20.8425 6.93188 20.2315 6.99525 19.6893 7.21823C19.8622 7.46155 20.1587 7.6055 20.456 7.59377C20.589 7.59064 20.7361 7.56013 20.8378 7.64462C20.9145 7.70956 20.934 7.8144 20.9481 7.91063C20.9935 8.18211 21.0389 8.45046 21.0811 8.71882C20.7752 8.46768 20.3348 8.49584 19.9357 8.48802C19.5367 8.47707 19.0704 8.36675 18.9234 7.99669C18.7653 8.17507 18.6949 8.42934 18.7403 8.66718C18.3272 8.5686 17.8523 8.41056 17.7334 8.00295C17.411 8.12187 17.0097 7.91611 16.922 7.58516C16.8908 7.46937 16.8821 7.32776 16.7804 7.26595C16.7186 7.22918 16.6388 7.23466 16.5653 7.24327C15.9519 7.31446 15.3409 7.38253 14.7306 7.45372C14.3973 7.49362 14.0523 7.53353 13.7581 7.69704C13.464 7.85821 13.23 8.17507 13.2637 8.50914C12.7012 8.84322 12.2239 9.32672 11.9016 9.89551C11.7999 10.0708 11.7122 10.2718 11.7521 10.4698C11.7803 10.6223 11.882 10.7522 11.9133 10.9024C11.9673 11.1598 11.8202 11.4086 11.7584 11.6629C11.5831 12.3866 12.1324 13.068 12.6417 13.6157C12.8819 13.87 13.1596 14.1469 13.5101 14.161C13.7276 14.1696 13.9342 14.0734 14.1376 13.9936C14.7197 13.7643 15.3534 13.6595 15.9777 13.6845C15.8361 13.7948 15.9832 14.035 16.1592 14.0718C16.3345 14.1086 16.5238 14.0515 16.6936 14.1109C17.0809 14.2494 17.0277 14.8174 16.8524 15.1883C16.94 15.171 17.0308 15.1538 17.1208 15.1374C17.073 15.2618 17.0245 15.3862 16.9768 15.5075C17.508 15.5747 17.7091 16.2734 17.5855 16.796C17.4642 17.3194 17.1536 17.7998 17.145 18.3373C17.1427 18.6315 17.2326 18.917 17.3234 19.1963C17.5503 19.906 17.7764 20.6156 18.0033 21.3275C18.637 21.4034 19.0008 20.5976 19.5892 20.3456C19.8098 20.2494 20.0695 20.2299 20.2424 20.0656C20.4091 19.9075 20.3551 19.5367 20.1407 19.5367C20.4318 19.5054 20.6806 19.2394 20.6892 18.9452C20.6923 18.863 20.6806 18.7809 20.6915 18.6995C20.7111 18.5837 20.7846 18.482 20.855 18.3827C21.3041 17.738 21.5952 16.9994 21.8862 16.2703C21.9621 16.0747 22.0388 15.883 22.1146 15.6874C22.4026 14.9606 22.6881 14.2369 22.976 13.5101C23.0887 13.2245 23.2021 12.9421 23.3148 12.6557C23.1591 12.9131 22.7523 12.8795 22.5199 12.687C22.2852 12.4953 22.1632 12.2035 21.9793 11.9633C21.8236 11.7568 21.6139 11.5737 21.5404 11.3218C21.4981 11.1778 21.506 11.0221 21.4809 10.8719C21.4238 10.5464 21.2094 10.2757 21.0624 9.98157C20.9153 9.68739 20.8386 9.30638 21.0451 9.0482C21.6397 10.0856 22.1804 11.1536 22.6694 12.2481C22.7233 12.0783 22.8477 11.9312 23.0058 11.8491C23.1216 11.7865 23.2514 11.7615 23.3735 11.7106C23.6958 11.569 23.9188 11.2271 23.9188 10.8766C23.9157 10.5261 23.6927 10.1842 23.3672 10.0457C23.2061 9.97765 23.0222 9.95575 22.8696 9.86186C22.7171 9.77189 22.6068 9.56534 22.703 9.41513C22.793 9.27352 23.0112 9.27665 23.1607 9.35567C23.3109 9.43782 23.4212 9.5763 23.562 9.6694C23.6637 9.73747 23.7827 9.78206 23.893 9.84465C24.4899 10.1865 24.637 10.9642 24.7622 11.6425C24.8303 12.0071 24.9069 12.3694 24.9977 12.7253C25.0008 12.6487 25 12.5697 25 12.4938C24.9969 9.20624 23.7256 6.21836 21.6491 3.9886ZM22.7937 8.09605C22.7116 8.09057 22.6357 8.03659 22.57 7.98574C22.4628 7.90124 22.3548 7.80188 22.3235 7.66888C22.2868 7.51084 22.3627 7.32933 22.2782 7.1885C22.2383 7.12043 22.1678 7.07818 22.1084 7.03046C21.9527 6.90606 21.8393 6.72768 21.797 6.536C21.7602 6.36623 21.8134 6.14012 21.9863 6.11196C22.0685 6.09787 22.1585 6.14325 22.1952 6.21914L22.0794 6.28173C22.2743 6.30442 22.365 6.59859 22.2156 6.72534C22.196 6.74489 22.1702 6.76211 22.1702 6.79027C22.1702 6.80748 22.1812 6.82391 22.196 6.83565C22.3173 6.96865 22.4988 7.01638 22.6568 7.10087C22.8149 7.18302 22.9706 7.33559 22.9455 7.51084C22.8947 7.5304 22.8469 7.54761 22.7961 7.56717C22.7421 7.62115 22.7851 7.71738 22.8415 7.77058C22.8978 7.82378 22.9713 7.87777 22.9745 7.95679C22.9745 8.04207 22.8782 8.10153 22.7937 8.09605Z" fill="#E9EFF4"/>
<path d="M22.875 16.7944L22.6708 16.9391C22.742 17.1895 22.5996 17.4829 22.3579 17.5807C22.2304 17.6323 22.0606 17.655 22.0176 17.7856C21.9816 17.8967 22.0676 18.0094 22.0794 18.1252C22.0981 18.3177 21.9182 18.4616 21.7883 18.6048C21.6585 18.748 21.5896 19.0171 21.7625 19.1032C21.8024 19.1235 21.8486 19.1274 21.8932 19.1313C22.0809 19.1478 22.2867 19.1532 22.44 19.0437C22.8797 18.73 22.4619 17.8787 22.8962 17.5564C22.958 17.511 23.0354 17.4782 23.0691 17.4093C23.1715 17.2067 22.7937 17.0056 22.875 16.7944Z" fill="#E9EFF4"/>
</g>
<defs>
<clipPath id="clip0">
<rect width="25" height="25" fill="white"/>
</clipPath>
</defs>
</svg>
