<svg width="60" height="60" viewBox="0 0 60 60" fill="none" xmlns="http://www.w3.org/2000/svg">
<path d="M31.4658 44.8492C31.4658 46.8169 32.0493 48.7405 33.1426 50.3767C34.2358 52.0128 35.7897 53.288 37.6076 54.041C39.4256 54.7941 41.4261 54.9911 43.356 54.6072C45.286 54.2233 47.0588 53.2757 48.4502 51.8843C49.8416 50.4929 50.7892 48.7201 51.1731 46.7902C51.557 44.8602 51.3599 42.8597 50.6069 41.0418C49.8539 39.2238 48.5786 37.6699 46.9425 36.5767C45.3064 35.4835 43.3828 34.9 41.415 34.9C38.7773 34.9031 36.2485 35.9523 34.3833 37.8174C32.5181 39.6826 31.4689 42.2114 31.4658 44.8492V44.8492ZM44.7655 52.7037C43.7104 53.1553 42.5751 53.3896 41.4274 53.3925C40.2797 53.3953 39.1432 53.1668 38.0859 52.7204V50.2665C38.0859 49.1975 38.9637 48.2812 40.0327 48.2812H42.835C43.904 48.2812 44.7655 49.1975 44.7655 50.2665V52.7037ZM39.3878 43.125C40.4955 43.125 41.4017 42.1875 41.4451 41.1328H43.7108V43.4492C43.7108 44.6829 42.6593 45.6865 41.4257 45.6865C40.1921 45.6865 39.1405 44.6829 39.1405 43.4492V43.125H39.3878ZM39.1405 41.7187V41.276C39.1475 40.68 39.3893 40.1108 39.8134 39.6919C40.2375 39.2731 40.8097 39.0384 41.4058 39.0388C41.6676 39.0609 41.9257 39.1147 42.1745 39.1991C42.4838 39.2969 42.8058 39.3489 43.1302 39.3535C43.2834 39.3528 43.435 39.3858 43.574 39.4503C43.713 39.5147 43.8361 39.6091 43.9346 39.7266H41.3643C41.0124 39.7286 40.6757 39.8698 40.4276 40.1193C40.1795 40.3689 40.0402 40.7064 40.0401 41.0583C40.0401 41.232 39.9717 41.3988 39.8496 41.5225C39.7275 41.6461 39.5616 41.7166 39.3878 41.7187H39.1405ZM49.9534 44.8492C49.9534 47.7971 48.5155 50.4009 46.1718 51.9369V50.2665C46.1718 48.4219 44.6794 46.875 42.835 46.875H42.537C44.0084 46.4062 45.1171 45.0739 45.1171 43.4492V41.0859C45.2592 41.0344 45.3832 40.9424 45.4738 40.8213C45.5644 40.7002 45.6176 40.5553 45.6269 40.4044C45.6239 39.7485 45.3613 39.1205 44.8966 38.6577C44.4319 38.1949 43.8029 37.9349 43.1471 37.9345C42.9623 37.9342 42.7787 37.9068 42.6019 37.8533C42.216 37.7255 41.8143 37.6511 41.4082 37.6323C40.439 37.6322 39.5091 38.0151 38.821 38.6976C38.1328 39.3801 37.7422 40.3069 37.7343 41.276V43.4492C37.7343 45.0739 38.8593 46.4062 40.3307 46.875H40.0327C38.1883 46.875 36.6796 48.4219 36.6796 50.2665V51.9609C35.5002 51.1888 34.5333 50.1333 33.8674 48.8909C33.2015 47.6485 32.8579 46.2589 32.868 44.8493C32.868 42.5835 33.768 40.4106 35.3701 38.8085C36.9723 37.2064 39.1452 36.3063 41.4109 36.3063C43.6767 36.3063 45.8496 37.2064 47.4517 38.8085C49.0538 40.4106 49.9539 42.5835 49.9539 44.8493L49.9534 44.8492Z" fill="url(#paint0_linear)"/>
<path d="M43.4744 49.3359H42.9041C42.7176 49.3359 42.5387 49.41 42.4069 49.5419C42.275 49.6737 42.2009 49.8526 42.2009 50.0391C42.2009 50.2255 42.275 50.4044 42.4069 50.5362C42.5387 50.6681 42.7176 50.7422 42.9041 50.7422H43.4744C43.6609 50.7422 43.8397 50.6681 43.9716 50.5362C44.1034 50.4044 44.1775 50.2255 44.1775 50.0391C44.1775 49.8526 44.1034 49.6737 43.9716 49.5419C43.8397 49.41 43.6609 49.3359 43.4744 49.3359V49.3359Z" fill="url(#paint1_linear)"/>
<path d="M8.4375 6.94219C8.62398 6.94219 8.80282 6.86811 8.93468 6.73625C9.06655 6.60439 9.14062 6.42554 9.14062 6.23906V5.80078C9.14062 5.6143 9.06655 5.43546 8.93468 5.3036C8.80282 5.17174 8.62398 5.09766 8.4375 5.09766C8.25102 5.09766 8.07218 5.17174 7.94032 5.3036C7.80845 5.43546 7.73438 5.6143 7.73438 5.80078V6.23906C7.73438 6.42554 7.80845 6.60439 7.94032 6.73625C8.07218 6.86811 8.25102 6.94219 8.4375 6.94219V6.94219Z" fill="url(#paint2_linear)"/>
<path d="M9.14062 14.713V8.78332C9.14062 8.59684 9.06655 8.418 8.93468 8.28614C8.80282 8.15428 8.62398 8.0802 8.4375 8.0802C8.25102 8.0802 8.07218 8.15428 7.94032 8.28614C7.80845 8.418 7.73438 8.59684 7.73438 8.78332V14.713C7.73438 14.8995 7.80845 15.0783 7.94032 15.2102C8.07218 15.342 8.25102 15.4161 8.4375 15.4161C8.62398 15.4161 8.80282 15.342 8.93468 15.2102C9.06655 15.0783 9.14062 14.8995 9.14062 14.713V14.713Z" fill="url(#paint3_linear)"/>
<path d="M21.3553 29.0625H35.5369C35.7234 29.0625 35.9022 28.9884 36.0341 28.8566C36.166 28.7247 36.24 28.5459 36.24 28.3594C36.24 28.1729 36.166 27.9941 36.0341 27.8622C35.9022 27.7303 35.7234 27.6562 35.5369 27.6562H21.3553C21.1689 27.6562 20.99 27.7303 20.8582 27.8622C20.7263 27.9941 20.6522 28.1729 20.6522 28.3594C20.6522 28.5459 20.7263 28.7247 20.8582 28.8566C20.99 28.9884 21.1689 29.0625 21.3553 29.0625V29.0625Z" fill="url(#paint4_linear)"/>
<path d="M14.1995 28.2252L12.6201 29.7354L11.9769 29.0923C11.9116 29.027 11.8341 28.9752 11.7488 28.9399C11.6635 28.9045 11.5721 28.8863 11.4797 28.8864C11.3874 28.8864 11.2959 28.9046 11.2106 28.9399C11.1253 28.9752 11.0478 29.027 10.9825 29.0923C10.9172 29.1576 10.8655 29.2351 10.8301 29.3205C10.7948 29.4058 10.7766 29.4972 10.7766 29.5895C10.7766 29.6819 10.7948 29.7733 10.8302 29.8586C10.8655 29.9439 10.9173 30.0214 10.9826 30.0867L12.1118 31.216C12.2417 31.3459 12.4174 31.4198 12.6012 31.4219C12.7849 31.424 12.9622 31.354 13.095 31.227L15.1713 29.2417C15.2381 29.1779 15.2916 29.1015 15.3289 29.017C15.3661 28.9325 15.3863 28.8415 15.3884 28.7492C15.3905 28.6569 15.3744 28.5651 15.3409 28.479C15.3075 28.3929 15.2575 28.3143 15.1937 28.2475C15.1299 28.1808 15.0535 28.1273 14.969 28.09C14.8845 28.0528 14.7935 28.0325 14.7012 28.0305C14.6089 28.0284 14.5171 28.0445 14.431 28.0779C14.3449 28.1113 14.2663 28.1614 14.1995 28.2252V28.2252Z" fill="url(#paint5_linear)"/>
<path d="M13.0826 24.9194C12.1319 24.9194 11.2026 25.2013 10.4122 25.7295C9.62175 26.2576 9.00568 27.0083 8.64188 27.8866C8.27808 28.7649 8.1829 29.7313 8.36836 30.6637C8.55382 31.5961 9.0116 32.4525 9.68381 33.1247C10.356 33.797 11.2125 34.2547 12.1449 34.4402C13.0772 34.6257 14.0437 34.5305 14.922 34.1667C15.8003 33.8029 16.5509 33.1868 17.0791 32.3964C17.6072 31.6059 17.8891 30.6766 17.8891 29.726C17.8877 28.4517 17.3808 27.23 16.4797 26.3289C15.5786 25.4278 14.3569 24.9209 13.0826 24.9194ZM13.0826 33.1263C12.4101 33.1263 11.7526 32.9269 11.1935 32.5533C10.6343 32.1796 10.1985 31.6486 9.94109 31.0272C9.68373 30.4059 9.61639 29.7222 9.74759 29.0626C9.87879 28.403 10.2026 27.7972 10.6782 27.3216C11.1537 26.8461 11.7596 26.5222 12.4192 26.391C13.0788 26.2598 13.7625 26.3272 14.3838 26.5845C15.0051 26.8419 15.5362 27.2777 15.9098 27.8369C16.2835 28.3961 16.4829 29.0535 16.4829 29.726C16.4819 30.6275 16.1233 31.4918 15.4858 32.1293C14.8484 32.7667 13.9841 33.1253 13.0826 33.1263V33.1263Z" fill="url(#paint6_linear)"/>
<path d="M21.3553 31.4062H30.8097C30.9962 31.4062 31.175 31.3322 31.3069 31.2003C31.4387 31.0684 31.5128 30.8896 31.5128 30.7031C31.5128 30.5166 31.4387 30.3378 31.3069 30.2059C31.175 30.0741 30.9962 30 30.8097 30H21.3553C21.1689 30 20.99 30.0741 20.8582 30.2059C20.7263 30.3378 20.6522 30.5166 20.6522 30.7031C20.6522 30.8896 20.7263 31.0684 20.8582 31.2003C20.99 31.3322 21.1689 31.4062 21.3553 31.4062V31.4062Z" fill="url(#paint7_linear)"/>
<path d="M14.1995 38.8614L12.62 40.3711L11.9769 39.7281C11.8447 39.598 11.6664 39.5254 11.4809 39.5262C11.2954 39.5269 11.1177 39.601 10.9866 39.7321C10.8554 39.8633 10.7814 40.041 10.7806 40.2264C10.7799 40.4119 10.8525 40.5902 10.9825 40.7224L12.1119 41.8516C12.2418 41.9816 12.4174 42.0555 12.6012 42.0575C12.7849 42.0596 12.9622 41.9896 13.095 41.8627L15.1713 39.8774C15.3061 39.7485 15.3842 39.5714 15.3884 39.3849C15.3925 39.1985 15.3225 39.018 15.1936 38.8832C15.0647 38.7484 14.8876 38.6703 14.7012 38.6662C14.5147 38.662 14.3343 38.732 14.1995 38.8609V38.8614Z" fill="url(#paint8_linear)"/>
<path d="M13.0826 35.5556C12.1319 35.5556 11.2026 35.8375 10.4122 36.3657C9.62175 36.8938 9.00568 37.6445 8.64188 38.5228C8.27808 39.4011 8.1829 40.3675 8.36836 41.2999C8.55382 42.2323 9.0116 43.0888 9.68381 43.761C10.356 44.4332 11.2125 44.891 12.1449 45.0764C13.0772 45.2619 14.0437 45.1667 14.922 44.8029C15.8003 44.4391 16.5509 43.823 17.0791 43.0326C17.6072 42.2422 17.8891 41.3129 17.8891 40.3622C17.8877 39.0879 17.3808 37.8661 16.4797 36.9651C15.5786 36.064 14.3569 35.5571 13.0826 35.5556ZM13.0826 43.7625C12.4101 43.7625 11.7526 43.5631 11.1935 43.1895C10.6343 42.8158 10.1985 42.2848 9.94109 41.6634C9.68373 41.0421 9.61639 40.3584 9.74759 39.6988C9.87879 39.0392 10.2026 38.4334 10.6782 37.9578C11.1537 37.4823 11.7596 37.1584 12.4192 37.0272C13.0788 36.896 13.7625 36.9634 14.3838 37.2207C15.0051 37.4781 15.5362 37.9139 15.9098 38.4731C16.2835 39.0323 16.4829 39.6897 16.4829 40.3622C16.4819 41.2637 16.1233 42.128 15.4858 42.7655C14.8484 43.4029 13.9841 43.7615 13.0826 43.7625V43.7625Z" fill="url(#paint9_linear)"/>
<path d="M21.3553 18.3984H35.5369C35.7234 18.3984 35.9022 18.3244 36.0341 18.1925C36.166 18.0606 36.24 17.8818 36.24 17.6953C36.24 17.5088 36.166 17.33 36.0341 17.1981C35.9022 17.0663 35.7234 16.9922 35.5369 16.9922H21.3553C21.1689 16.9922 20.99 17.0663 20.8582 17.1981C20.7263 17.33 20.6522 17.5088 20.6522 17.6953C20.6522 17.8818 20.7263 18.0606 20.8582 18.1925C20.99 18.3244 21.1689 18.3984 21.3553 18.3984V18.3984Z" fill="url(#paint10_linear)"/>
<path d="M14.1995 17.589L12.62 19.0992L11.9769 18.4562C11.8447 18.3261 11.6664 18.2535 11.4809 18.2543C11.2954 18.2551 11.1177 18.3291 10.9866 18.4602C10.8554 18.5914 10.7814 18.7691 10.7806 18.9546C10.7799 19.14 10.8525 19.3183 10.9825 19.4505L12.1119 20.5798C12.2418 20.7097 12.4174 20.7836 12.6012 20.7856C12.7849 20.7877 12.9622 20.7178 13.095 20.5908L15.1713 18.6055C15.238 18.5417 15.2916 18.4654 15.3288 18.3809C15.366 18.2964 15.3863 18.2054 15.3884 18.113C15.3904 18.0207 15.3743 17.9289 15.3409 17.8428C15.3075 17.7567 15.2574 17.6781 15.1936 17.6113C15.1298 17.5446 15.0535 17.4911 14.969 17.4538C14.8845 17.4166 14.7935 17.3964 14.7012 17.3943C14.6088 17.3922 14.517 17.4083 14.4309 17.4418C14.3449 17.4752 14.2662 17.5252 14.1995 17.589V17.589Z" fill="url(#paint11_linear)"/>
<path d="M13.0826 14.2833C12.1319 14.2833 11.2026 14.5652 10.4122 15.0933C9.62175 15.6215 9.00568 16.3722 8.64188 17.2504C8.27808 18.1287 8.1829 19.0952 8.36836 20.0276C8.55382 20.9599 9.0116 21.8164 9.68381 22.4886C10.356 23.1608 11.2125 23.6186 12.1449 23.804C13.0772 23.9895 14.0437 23.8943 14.922 23.5305C15.8003 23.1667 16.5509 22.5507 17.0791 21.7602C17.6072 20.9698 17.8891 20.0405 17.8891 19.0898C17.8877 17.8155 17.3808 16.5938 16.4797 15.6927C15.5786 14.7916 14.3569 14.2847 13.0826 14.2833ZM13.0826 22.4902C12.4101 22.4902 11.7526 22.2907 11.1935 21.9171C10.6343 21.5435 10.1985 21.0124 9.94109 20.3911C9.68373 19.7698 9.61639 19.0861 9.74759 18.4265C9.87879 17.7669 10.2026 17.161 10.6782 16.6855C11.1537 16.2099 11.7596 15.8861 12.4192 15.7549C13.0788 15.6237 13.7625 15.691 14.3838 15.9484C15.0051 16.2057 15.5362 16.6416 15.9098 17.2007C16.2835 17.7599 16.4829 18.4173 16.4829 19.0898C16.4819 19.9913 16.1233 20.8556 15.4858 21.4931C14.8484 22.1306 13.9841 22.4891 13.0826 22.4902V22.4902Z" fill="url(#paint12_linear)"/>
<path d="M21.3553 20.7422H30.8097C30.9962 20.7422 31.175 20.6681 31.3069 20.5362C31.4387 20.4044 31.5128 20.2255 31.5128 20.0391C31.5128 19.8526 31.4387 19.6737 31.3069 19.5419C31.175 19.41 30.9962 19.3359 30.8097 19.3359H21.3553C21.1689 19.3359 20.99 19.41 20.8582 19.5419C20.7263 19.6737 20.6522 19.8526 20.6522 20.0391C20.6522 20.2255 20.7263 20.4044 20.8582 20.5362C20.99 20.6681 21.1689 20.7422 21.3553 20.7422V20.7422Z" fill="url(#paint13_linear)"/>
<path d="M48.479 32.1013L44.6856 30.6372C44.5505 30.5851 44.4025 30.576 44.2619 30.6112C44.1214 30.6464 43.9952 30.7241 43.9005 30.8338L42.6797 32.2491C42.5166 32.2327 42.3534 32.2203 42.1901 32.2098L42.0917 14.1833C42.0913 14.0908 42.0726 13.9993 42.0368 13.914C42.001 13.8288 41.9487 13.7514 41.8829 13.6864L29.1737 1.12502C28.8255 0.781178 28.3553 0.589427 27.866 0.591819L10.0886 0.67385C8.54226 0.683119 7.06272 1.30534 5.97451 2.40402C4.88631 3.5027 4.2783 4.98814 4.28385 6.53452L4.46573 44.3392C4.47453 45.8821 5.09245 47.359 6.18498 48.4485C7.27751 49.538 8.75618 50.1518 10.2991 50.1563H10.3272L27.5549 50.0431L28.7484 52.7706C28.8067 52.9039 28.905 53.0158 29.0296 53.0909C29.1542 53.166 29.299 53.2006 29.4441 53.1899L31.3278 53.0515C32.0189 53.9254 32.8297 54.6977 33.7361 55.3456L33.6808 57.2263C33.6766 57.3717 33.7175 57.5149 33.798 57.6361C33.8786 57.7573 33.9947 57.8505 34.1305 57.9028L37.9237 59.3672C38.0589 59.4193 38.2069 59.4284 38.3474 59.3932C38.488 59.3579 38.6142 59.2802 38.7089 59.1705L39.9298 57.7552C41.0358 57.8669 42.1515 57.8381 43.2502 57.6694L44.5565 59.0315C44.6561 59.1353 44.7852 59.2062 44.9264 59.2343C45.0675 59.2625 45.2139 59.2467 45.3458 59.189L49.0723 57.5587C49.2056 57.5003 49.3176 57.4021 49.3927 57.2775C49.4678 57.1529 49.5024 57.008 49.4917 56.8629L49.3533 54.9791C50.2275 54.2879 50.9999 53.477 51.6479 52.5703L53.5286 52.6257C53.6741 52.6298 53.8172 52.5888 53.9384 52.5082C54.0595 52.4277 54.1528 52.3116 54.2053 52.1759L55.6692 48.3828C55.7213 48.2476 55.7304 48.0996 55.6952 47.9591C55.66 47.8185 55.5823 47.6923 55.4726 47.5976L54.0577 46.3765C54.1693 45.2705 54.1404 44.1548 53.9718 43.056L55.3339 41.7497C55.4378 41.6501 55.5086 41.521 55.5367 41.3799C55.5649 41.2387 55.5491 41.0923 55.4914 40.9605L53.8611 37.2339C53.8028 37.1006 53.7045 36.9887 53.5799 36.9135C53.4553 36.8384 53.3104 36.8038 53.1653 36.8145L51.2813 36.9528C50.5902 36.0788 49.7794 35.3064 48.8729 34.6586L48.9282 32.778C48.9325 32.6326 48.8916 32.4894 48.8112 32.3682C48.7307 32.247 48.6147 32.1538 48.479 32.1013V32.1013ZM39.6942 13.5018L33.5274 13.5938H33.506C32.3337 13.5872 31.2114 13.1185 30.3827 12.2894C29.554 11.4603 29.0858 10.3378 29.0797 9.16561L29.0508 2.98233L39.6942 13.5018ZM27.2752 48.2544C27.167 48.3586 27.0951 48.4948 27.0701 48.6429L10.3197 48.75H10.2984C9.1272 48.7458 8.00509 48.2792 7.17614 47.4518C6.3472 46.6245 5.87849 45.5032 5.87198 44.3321L5.6901 6.53405C5.68576 5.36014 6.14707 4.23242 6.97289 3.3981C7.79871 2.56378 8.92165 2.09095 10.0955 2.08326L27.6393 1.99748L27.6738 9.17241C27.6821 10.7162 28.2994 12.1944 29.3916 13.2856C30.4837 14.3768 31.9624 14.9929 33.5062 15H33.5344L40.6887 14.9297L40.7832 32.1969C40.306 32.2172 39.8303 32.2633 39.3582 32.3352L38.0519 30.9727C37.9523 30.8688 37.8232 30.798 37.682 30.7698C37.5409 30.7417 37.3945 30.7575 37.2626 30.8152L33.5361 32.4456C33.4028 32.5039 33.2908 32.6022 33.2157 32.7268C33.1406 32.8514 33.106 32.9962 33.1167 33.1414L33.2552 35.025C32.3811 35.7161 31.6088 36.527 30.961 37.4336L29.0803 37.3783C28.9348 37.3737 28.7914 37.4146 28.6702 37.4951C28.549 37.5757 28.4558 37.692 28.4036 37.8279L28.2581 38.205C28.2464 38.2043 28.2335 38.2032 28.2209 38.2032H21.3554C21.1689 38.2032 20.9901 38.2772 20.8582 38.4091C20.7263 38.541 20.6522 38.7198 20.6522 38.9063C20.6522 39.0928 20.7263 39.2716 20.8582 39.4035C20.9901 39.5353 21.1689 39.6094 21.3554 39.6094H27.7161L27.3542 40.5469H21.3554C21.1689 40.5469 20.9901 40.621 20.8582 40.7528C20.7263 40.8847 20.6522 41.0635 20.6522 41.25C20.6522 41.4365 20.7263 41.6154 20.8582 41.7472C20.9901 41.8791 21.1689 41.9532 21.3554 41.9532H26.8978C26.9173 42.129 27.0024 42.2909 27.1362 42.4067L28.5515 43.6279C28.4399 44.7339 28.4688 45.8495 28.6374 46.9483L27.2752 48.2544ZM50.3888 38.0999C50.4594 38.1953 50.553 38.2714 50.6609 38.3209C50.7688 38.3704 50.8874 38.3918 51.0058 38.383L52.7722 38.2532L54.0064 41.0742L52.7302 42.2982C52.6463 42.3786 52.5836 42.4787 52.5479 42.5893C52.5121 42.7 52.5043 42.8178 52.5253 42.9321C52.7453 44.1341 52.7769 45.3631 52.619 46.5748C52.604 46.6902 52.6179 46.8075 52.6594 46.9163C52.7009 47.025 52.7688 47.1217 52.8569 47.1978L54.1787 48.3385L53.0722 51.2055L51.3069 51.1535C51.1877 51.1502 51.0696 51.1771 50.9637 51.2318C50.8578 51.2865 50.7675 51.3672 50.7012 51.4663C50.0278 52.4777 49.1835 53.3641 48.2062 54.086C48.1108 54.1566 48.0348 54.2502 47.9853 54.3581C47.9358 54.4659 47.9144 54.5846 47.9231 54.7029L48.0529 56.4694L45.2321 57.7037L44.0082 56.4276C43.9277 56.3436 43.8277 56.2809 43.717 56.2451C43.6064 56.2093 43.4886 56.2016 43.3742 56.2226C42.1722 56.4424 40.9433 56.474 39.7315 56.3164C39.6161 56.3012 39.4988 56.3151 39.39 56.3566C39.2813 56.3981 39.1845 56.466 39.1086 56.5542L37.968 57.8764L35.1011 56.7698L35.153 55.0046C35.1565 54.8854 35.1297 54.7673 35.0749 54.6613C35.0202 54.5554 34.9395 54.4651 34.8403 54.3989C33.8289 53.7255 32.9425 52.8812 32.2205 51.9039C32.1499 51.8085 32.0563 51.7326 31.9485 51.6831C31.8406 51.6336 31.722 51.6122 31.6037 51.6208L29.8373 51.7506L28.6028 48.9294L29.879 47.7055C29.9629 47.6251 30.0256 47.525 30.0614 47.4144C30.0971 47.3037 30.1049 47.1859 30.084 47.0716C29.8639 45.8695 29.8323 44.6406 29.9902 43.4289C30.0052 43.3135 29.9913 43.1961 29.9498 43.0874C29.9082 42.9787 29.8403 42.882 29.7522 42.8059L28.4298 41.6655L29.5362 38.7986L31.3014 38.8505C31.4205 38.8534 31.5385 38.8262 31.6443 38.7715C31.7502 38.7168 31.8406 38.6364 31.9072 38.5376C32.5806 37.5263 33.4248 36.6399 34.4021 35.918C34.4975 35.8474 34.5735 35.7538 34.623 35.646C34.6725 35.5381 34.6939 35.4195 34.6852 35.3011L34.5555 33.5348L37.3765 32.3004L38.6005 33.5767C38.6809 33.6606 38.781 33.7233 38.8916 33.7591C39.0023 33.7948 39.1201 33.8026 39.2344 33.7817C40.4366 33.5616 41.6658 33.53 42.8777 33.6879C42.9931 33.7028 43.1104 33.6889 43.2192 33.6474C43.3279 33.6059 43.4246 33.5381 43.5008 33.45L44.6412 32.1279L47.5079 33.2344L47.4558 34.9996C47.4523 35.1188 47.4792 35.237 47.534 35.3429C47.5887 35.4489 47.6695 35.5392 47.7687 35.6053C48.7802 36.2786 49.6667 37.1227 50.3888 38.0999V38.0999Z" fill="url(#paint14_linear)"/>
<defs>
<linearGradient id="paint0_linear" x1="31.4658" y1="39.0286" x2="51.3638" y2="39.1395" gradientUnits="userSpaceOnUse">
<stop stop-color="#5465FF"/>
<stop offset="1" stop-color="#04DEB7"/>
</linearGradient>
<linearGradient id="paint1_linear" x1="42.2009" y1="49.6277" x2="44.1774" y2="49.6432" gradientUnits="userSpaceOnUse">
<stop stop-color="#5465FF"/>
<stop offset="1" stop-color="#04DEB7"/>
</linearGradient>
<linearGradient id="paint2_linear" x1="7.73438" y1="5.48037" x2="9.14061" y2="5.48635" gradientUnits="userSpaceOnUse">
<stop stop-color="#5465FF"/>
<stop offset="1" stop-color="#04DEB7"/>
</linearGradient>
<linearGradient id="paint3_linear" x1="7.73438" y1="9.60231" x2="9.14063" y2="9.60381" gradientUnits="userSpaceOnUse">
<stop stop-color="#5465FF"/>
<stop offset="1" stop-color="#04DEB7"/>
</linearGradient>
<linearGradient id="paint4_linear" x1="20.6522" y1="27.948" x2="36.1809" y2="28.9074" gradientUnits="userSpaceOnUse">
<stop stop-color="#5465FF"/>
<stop offset="1" stop-color="#04DEB7"/>
</linearGradient>
<linearGradient id="paint5_linear" x1="10.7766" y1="28.734" x2="15.3884" y2="28.769" gradientUnits="userSpaceOnUse">
<stop stop-color="#5465FF"/>
<stop offset="1" stop-color="#04DEB7"/>
</linearGradient>
<linearGradient id="paint6_linear" x1="8.276" y1="26.914" x2="17.8889" y2="26.9676" gradientUnits="userSpaceOnUse">
<stop stop-color="#5465FF"/>
<stop offset="1" stop-color="#04DEB7"/>
</linearGradient>
<linearGradient id="paint7_linear" x1="20.6522" y1="30.2918" x2="31.4928" y2="30.7584" gradientUnits="userSpaceOnUse">
<stop stop-color="#5465FF"/>
<stop offset="1" stop-color="#04DEB7"/>
</linearGradient>
<linearGradient id="paint8_linear" x1="10.7806" y1="39.3697" x2="15.3883" y2="39.4046" gradientUnits="userSpaceOnUse">
<stop stop-color="#5465FF"/>
<stop offset="1" stop-color="#04DEB7"/>
</linearGradient>
<linearGradient id="paint9_linear" x1="8.276" y1="37.5502" x2="17.8889" y2="37.6038" gradientUnits="userSpaceOnUse">
<stop stop-color="#5465FF"/>
<stop offset="1" stop-color="#04DEB7"/>
</linearGradient>
<linearGradient id="paint10_linear" x1="20.6522" y1="17.284" x2="36.1809" y2="18.2434" gradientUnits="userSpaceOnUse">
<stop stop-color="#5465FF"/>
<stop offset="1" stop-color="#04DEB7"/>
</linearGradient>
<linearGradient id="paint11_linear" x1="10.7806" y1="18.0978" x2="15.3883" y2="18.1327" gradientUnits="userSpaceOnUse">
<stop stop-color="#5465FF"/>
<stop offset="1" stop-color="#04DEB7"/>
</linearGradient>
<linearGradient id="paint12_linear" x1="8.276" y1="16.2779" x2="17.8889" y2="16.3315" gradientUnits="userSpaceOnUse">
<stop stop-color="#5465FF"/>
<stop offset="1" stop-color="#04DEB7"/>
</linearGradient>
<linearGradient id="paint13_linear" x1="20.6522" y1="19.6277" x2="31.4928" y2="20.0944" gradientUnits="userSpaceOnUse">
<stop stop-color="#5465FF"/>
<stop offset="1" stop-color="#04DEB7"/>
</linearGradient>
<linearGradient id="paint14_linear" x1="4.28381" y1="12.7967" x2="55.7154" y2="13.0474" gradientUnits="userSpaceOnUse">
<stop stop-color="#5465FF"/>
<stop offset="1" stop-color="#04DEB7"/>
</linearGradient>
</defs>
</svg>
