<svg width="60" height="60" viewBox="0 0 60 60" fill="none" xmlns="http://www.w3.org/2000/svg">
<rect width="60" height="60" rx="3" fill="#005DC7"/>
<path d="M35.3334 42.1717H24.6667V16.495C24.6667 15.9059 25.1443 15.4283 25.7334 15.4283H35.3334V42.1717Z" fill="#E56353"/>
<path d="M33.2 17.5616H26.8V28.799H33.2V17.5616Z" fill="#EBF0F3"/>
<path d="M24.6667 42.1716H14V21.8283C14 21.2392 14.4776 20.7616 15.0667 20.7616H24.6667V42.1716Z" fill="#44C4A1"/>
<path d="M22.5333 22.8949H16.1333V31.4656H22.5333V22.8949Z" fill="#EBF0F3"/>
<path d="M45.9999 42.1716H35.3333V11.1617C35.3333 10.5725 35.8108 10.095 36.3999 10.095H44.9332C45.5223 10.095 45.9999 10.5725 45.9999 11.1617V42.1716Z" fill="#27A2DB"/>
<path d="M43.8653 12.2303H37.4653V24.8218H43.8653V12.2303Z" fill="#EBF0F3"/>
<path d="M39.5887 35.5049V36.0036C39.5887 37.4763 38.3949 38.6703 36.922 38.6703H23.0779C21.6051 38.6703 20.4112 37.4764 20.4112 36.0036V35.5049C20.4112 34.9158 19.9336 34.4382 19.3445 34.4382H11.0667C10.4776 34.4382 10 34.9158 10 35.5049V46.7049C10 48.4722 11.4327 49.9049 13.2 49.9049H46.8C48.5672 49.9049 49.9999 48.4722 49.9999 46.7049V35.5049C49.9999 34.9158 49.5224 34.4382 48.9332 34.4382H40.6553C40.0663 34.4382 39.5887 34.9158 39.5887 35.5049Z" fill="#DC8744"/>
<path d="M42.5334 17.9904H38.8V19.057H42.5334V17.9904Z" fill="#64798A"/>
<path d="M31.8669 22.6453H28.1335V23.7119H31.8669V22.6453Z" fill="#64798A"/>
<path d="M21.2001 26.6475H17.4668V27.7141H21.2001V26.6475Z" fill="#64798A"/>
<path d="M21.2001 28.7808H17.4668V29.8474H21.2001V28.7808Z" fill="#64798A"/>
<path d="M21.2001 24.5142H17.4668V25.5808H21.2001V24.5142Z" fill="#64798A"/>
<path d="M31.8669 25.3119H28.1335V26.3786H31.8669V25.3119Z" fill="#64798A"/>
<path d="M31.8669 19.9786H28.1335V21.0453H31.8669V19.9786Z" fill="#64798A"/>
<path d="M42.5334 21.1904H38.8V22.2571H42.5334V21.1904Z" fill="#64798A"/>
<path d="M42.5334 14.7904H38.8V15.8571H42.5334V14.7904Z" fill="#64798A"/>
</svg>
