<svg width="60" height="60" viewBox="0 0 60 60" fill="none" xmlns="http://www.w3.org/2000/svg">
<rect width="60" height="60" rx="3" fill="#00524E"/>
<g clip-path="url(#clip0)">
<path d="M46.3362 31.7303C46.0651 31.5762 45.7848 31.4167 45.4967 31.2437L43.1285 29.8238C44.1881 28.767 44.9861 27.4451 45.2884 26.1196C45.3715 25.7542 45.4137 25.3931 45.4137 25.0464V22.653V21.7385V19.6684C45.4137 17.3203 43.6335 15.1973 40.8785 14.2595C39.7218 13.8657 38.4967 13.7347 37.4292 13.8904C36.3149 14.053 35.4007 14.5118 34.7682 15.2228C33.478 15.424 31.6038 16.4205 31.6685 20.5203C31.6692 20.5596 31.6697 20.5918 31.6697 20.616V21.6455V23.1135V25.0463C31.6697 25.3931 31.7119 25.7542 31.7951 26.1198C32.0973 27.4453 32.8956 28.7672 33.9549 29.824L31.5864 31.2438C31.488 31.3032 31.3896 31.361 31.2927 31.4173C30.8372 29.9399 29.6372 29.2587 28.2935 28.4954C28.0239 28.3431 27.745 28.1845 27.4591 28.0134L25.091 26.592C26.1503 25.5354 26.9482 24.2141 27.2506 22.8893C27.3353 22.5174 27.3782 22.1556 27.3782 21.8138V19.4226V18.506V16.4358C27.3782 14.088 25.5978 11.9649 22.8424 11.0271C21.6854 10.6333 20.4601 10.5022 19.3921 10.6578C18.2774 10.8203 17.3629 11.2792 16.7303 11.9904C15.4403 12.1926 13.5662 13.1903 13.6308 17.2896C13.6314 17.329 13.632 17.3613 13.632 17.3856V18.4152V19.881V21.8138C13.632 22.1556 13.6749 22.5174 13.7595 22.8891C14.0605 24.2139 14.858 25.5355 15.9172 26.592L13.5514 28.0132C13.2653 28.1846 12.9866 28.3428 12.717 28.4958C11.0036 29.4681 9.52393 30.3078 9.52393 32.8334V37.607C9.52393 37.8472 9.55377 38.196 9.81213 38.4498C10.0486 38.6821 10.3358 38.7095 10.5867 38.7095C10.6266 38.7095 10.6655 38.7088 10.7031 38.7081C10.7427 38.7074 10.7842 38.7066 10.8274 38.7066H12.8803C13.2038 38.7066 13.4662 38.4442 13.4662 38.1206C13.4662 37.7971 13.2038 37.5347 12.8803 37.5347H10.8274C10.7817 37.5347 10.7378 37.5354 10.6958 37.5361V32.8334C10.6958 30.9902 11.6742 30.4349 13.2953 29.515C13.4717 29.4149 13.6526 29.312 13.8378 29.2044L16.7053 31.0603C16.7131 31.0652 16.7209 31.07 16.7288 31.0746C16.833 31.1353 16.9223 31.1965 17.0086 31.2556C17.1894 31.3793 17.4544 31.5608 17.7687 31.5608C17.9711 31.5608 18.1939 31.4849 18.4276 31.2705L18.6412 32.106L17.0231 35.6124C17.0203 35.6186 17.0175 35.6249 17.0149 35.6312C16.9203 35.8325 16.9346 36.0509 17.0537 36.2371L17.8185 37.5348H15.4891C15.1655 37.5348 14.9031 37.7971 14.9031 38.1207C14.9031 38.4443 15.1655 38.7067 15.4891 38.7067H18.8435C18.8439 38.7067 18.8443 38.7067 18.8447 38.7067C18.8451 38.7067 18.8455 38.7067 18.8459 38.7067H20.505C20.5061 38.7067 20.5071 38.7065 20.5082 38.7065H20.8403C20.8942 40.0854 21.4465 41.4471 22.4957 42.4979C23.6035 43.6057 25.0582 44.1596 26.5129 44.1596C27.6056 44.1596 28.6986 43.847 29.6445 43.222L30.8729 44.4488L30.8535 44.4681C30.5833 44.7383 30.4344 45.099 30.4344 45.4836C30.4344 45.8682 30.5832 46.2289 30.8535 46.4991L34.295 49.9398C34.5741 50.2188 34.9412 50.3585 35.309 50.3585C35.6767 50.3585 36.0451 50.2188 36.3266 49.9392L37.192 49.0718C37.4639 48.7999 37.6135 48.4381 37.6128 48.0531C37.6121 47.6692 37.4622 47.3092 37.1921 47.041L33.7513 43.5987C33.1902 43.0415 32.2796 43.0421 31.7217 43.6001L31.7017 43.62L30.554 42.4738C30.7223 42.3035 30.8781 42.125 31.0208 41.9391H38.5427C38.5435 41.9391 38.5442 41.939 38.5449 41.939H40.1953C40.1957 41.939 40.1961 41.9391 40.1965 41.9391C40.1969 41.9391 40.1973 41.939 40.1977 41.939H42.3253C42.6488 41.939 42.9112 41.6767 42.9112 41.3531C42.9112 41.0295 42.6488 40.7671 42.3253 40.7671H41.2217L41.9854 39.4692C42.1053 39.2816 42.1189 39.0607 42.0215 38.8556C42.0196 38.8513 42.0178 38.8471 42.0157 38.8428L40.3997 35.3384L40.6139 34.498C40.8502 34.7153 41.0748 34.792 41.2786 34.792C41.5927 34.792 41.8571 34.611 42.0374 34.4878C42.1235 34.4288 42.2126 34.3678 42.3167 34.3071C42.3247 34.3025 42.3325 34.2977 42.3403 34.2927L45.2095 32.4349C45.3963 32.5436 45.5788 32.6477 45.7568 32.7488C47.3753 33.6692 48.3521 34.2247 48.3521 36.0659V40.7686C48.3093 40.7678 48.2646 40.7671 48.2183 40.7671H44.7259C44.4023 40.7671 44.1399 41.0295 44.1399 41.3531C44.1399 41.6767 44.4023 41.939 44.7259 41.939H48.2183C48.2616 41.939 48.303 41.9398 48.3426 41.9405C48.3803 41.9412 48.4193 41.9419 48.4593 41.9419C48.7108 41.9419 48.9986 41.9145 49.2355 41.6817C49.494 41.4278 49.5239 41.0794 49.5239 40.8395V36.0659C49.5239 33.543 48.0467 32.703 46.3362 31.7303ZM32.737 44.3533C32.8053 44.3533 32.8736 44.3785 32.9242 44.4287L36.3649 47.871C36.431 47.9365 36.4409 48.0144 36.441 48.055C36.441 48.0963 36.431 48.1755 36.3629 48.2436L35.4989 49.1096C35.3965 49.2113 35.2246 49.212 35.1236 49.111L31.6821 45.6703C31.6162 45.6043 31.6063 45.5249 31.6063 45.4835C31.6063 45.442 31.6162 45.3627 31.6821 45.2967L32.5503 44.4288C32.6007 44.3785 32.6688 44.3533 32.737 44.3533ZM35.1213 16.3597C35.2847 16.3454 35.4346 16.2634 35.5346 16.1335C36.5692 14.7897 38.7744 14.7812 40.5008 15.3688C42.2265 15.9563 44.2417 17.4347 44.2417 19.6684V21.7385V22.0671H43.6717C42.7411 22.0671 42.1592 21.5221 41.4224 20.832C40.5324 19.9985 39.5237 19.0536 37.7211 19.0536H36.2661C34.6821 19.0536 34.421 20.326 34.2483 21.1679C34.0375 22.1953 33.9007 22.5275 33.0837 22.5275H32.8413V21.6455V20.616C32.8413 20.5871 32.8408 20.5488 32.84 20.5018C32.8118 18.7057 33.1846 16.529 35.1213 16.3597ZM32.9377 25.8596C32.8739 25.5794 32.8416 25.3058 32.8416 25.0464V23.6995H33.0839C34.9255 23.6995 35.2089 22.3178 35.3965 21.4035C35.5924 20.4487 35.696 20.2255 36.2663 20.2255H37.7213C39.0608 20.2255 39.8189 20.9355 40.6215 21.6873C41.398 22.4146 42.2781 23.2388 43.6718 23.2388H44.2419V25.0463C44.2419 25.3057 44.2096 25.5793 44.1459 25.8593C43.6996 27.8167 41.8789 29.8449 39.9092 30.5778C39.3945 30.7713 38.9603 30.8613 38.543 30.8613C38.1241 30.8613 37.6892 30.7713 37.1728 30.5771C35.2045 29.8449 33.3838 27.8167 32.9377 25.8596ZM39.6624 33.4867L39.3254 34.8092H37.7514L37.4162 33.4924L38.5426 32.3006L39.6624 33.4867ZM34.8855 30.632C35.4724 31.0728 36.1073 31.4311 36.7621 31.6747C36.9634 31.7504 37.1559 31.8121 37.3435 31.8632L35.8005 33.4958C35.7881 33.5088 35.7764 33.5224 35.7653 33.5366C35.7612 33.5418 35.7572 33.5468 35.7533 33.5517C35.7375 33.541 35.722 33.5303 35.7077 33.5205C35.6167 33.4583 35.5042 33.3813 35.3688 33.3017L32.9955 31.7653L34.8855 30.632ZM27.7146 29.5149C29.07 30.2837 29.9763 30.7978 30.2372 32.0228C29.6263 32.3798 29.0646 32.7438 28.6153 33.2063C27.9419 32.9392 27.2271 32.8056 26.513 32.8056C25.3419 32.8056 24.1708 33.1642 23.181 33.8813L22.362 32.1063L22.5762 31.266C22.8123 31.4837 23.0369 31.5606 23.2406 31.5606C23.5546 31.5606 23.8188 31.3794 23.9991 31.2559C24.0854 31.1967 24.1748 31.1354 24.2792 31.0746C24.2871 31.0699 24.2949 31.0652 24.3025 31.0603L27.1722 29.2042C27.3574 29.3119 27.5383 29.4149 27.7146 29.5149ZM26.0499 28.5345L23.677 30.0692C23.5407 30.1492 23.4278 30.2268 23.3363 30.2894C23.3225 30.2988 23.3076 30.3091 23.2924 30.3194C23.2888 30.3148 23.2849 30.3099 23.281 30.3049C23.2698 30.2906 23.2579 30.2767 23.2453 30.2635L22.7125 29.6992C22.7075 29.6935 22.7022 29.6882 22.697 29.6828L21.7038 28.631C21.8911 28.5799 22.0833 28.5183 22.2841 28.4428C22.9388 28.199 23.5735 27.8407 24.1602 27.4L26.0499 28.5345ZM17.0841 13.1271C17.2473 13.1128 17.397 13.0307 17.4969 12.9009C18.5317 11.5569 20.7376 11.5485 22.4649 12.1364C24.1908 12.7239 26.2063 14.2024 26.2063 16.4357V18.5059V18.8366H25.6363C24.7046 18.8366 24.1226 18.291 23.3858 17.6003C22.4963 16.7663 21.4881 15.821 19.6856 15.821H18.2285C16.646 15.821 16.3846 17.0929 16.2117 17.9346C16.0005 18.9626 15.8635 19.2949 15.0461 19.2949H14.8038V18.4151V17.3856C14.8038 17.3567 14.8032 17.3181 14.8024 17.2711C14.7742 15.4749 15.1471 13.2979 17.0841 13.1271ZM14.9021 22.6292C14.8369 22.3426 14.8038 22.0682 14.8038 21.8138V20.4668H15.0462C16.8879 20.4668 17.1718 19.0849 17.3597 18.1703C17.5558 17.216 17.6594 16.9928 18.2285 16.9928H19.6857C21.0247 16.9928 21.7823 17.7031 22.5844 18.4551C23.361 19.1832 24.2412 20.0085 25.6363 20.0085H26.2064V21.8137C26.2064 22.0681 26.1734 22.3424 26.1081 22.6288C25.6617 24.5847 23.842 26.6121 21.8735 27.3452C21.3589 27.5387 20.9241 27.6288 20.5052 27.6288C20.0863 27.6288 19.6515 27.5387 19.1349 27.3445C17.1661 26.6121 15.3465 24.585 14.9021 22.6292ZM21.6247 30.2541L21.2877 31.5765H19.7154L19.3787 30.2596L20.5048 29.068L21.6247 30.2541ZM17.7628 30.2633C17.7499 30.277 17.7377 30.2913 17.7261 30.3061C17.7226 30.3107 17.7191 30.3151 17.7157 30.3193C17.7002 30.3088 17.6849 30.2983 17.6708 30.2886C17.5796 30.2262 17.4668 30.1489 17.3312 30.0692L14.9596 28.5344L16.8481 27.3999C17.4348 27.8404 18.0696 28.1985 18.7245 28.4421C18.9258 28.5178 19.1183 28.5795 19.3059 28.6306L17.7628 30.2633ZM20.5052 37.5345C20.5041 37.5345 20.5031 37.5346 20.502 37.5346H19.1789L18.1962 35.8673L19.6354 32.7484H21.3678L22.2708 34.704C21.538 35.5259 21.0856 36.511 20.9146 37.5345H20.5052ZM31.0177 38.5845C31.0013 39.3415 30.795 40.0954 30.4005 40.7673C30.2106 41.0892 29.9786 41.3931 29.7021 41.6696C29.6067 41.7642 29.5091 41.854 29.4075 41.9392C27.638 43.422 24.988 43.3329 23.3247 41.6696C22.5036 40.8478 22.0661 39.7853 22.0138 38.7063C22.0127 38.6852 22.0123 38.664 22.0115 38.6428C22.0103 38.6119 22.0091 38.581 22.0085 38.5501C22.0081 38.5271 22.0084 38.5039 22.0084 38.4809C22.0083 38.4556 22.008 38.4303 22.0084 38.4049C22.0088 38.381 22.0098 38.3571 22.0106 38.3332C22.0113 38.3083 22.0118 38.2835 22.0131 38.2585C22.0141 38.2378 22.0157 38.2172 22.017 38.1965C22.0187 38.1682 22.0203 38.1399 22.0225 38.1117C22.0237 38.0974 22.0253 38.0831 22.0267 38.0687C22.0298 38.0342 22.0328 37.9997 22.0367 37.9653C22.0374 37.9599 22.0381 37.9545 22.0388 37.9492C22.0551 37.8101 22.0776 37.6717 22.1067 37.5344C22.2825 36.7125 22.688 35.9313 23.3239 35.2938C23.4396 35.1781 23.5599 35.0711 23.6841 34.9711C24.8974 33.993 26.5044 33.7367 27.9239 34.2008C28.2942 34.3219 28.6513 34.4922 28.9864 34.711C29.2395 34.8766 29.4794 35.0711 29.7021 35.293C29.938 35.5289 30.1419 35.7852 30.3146 36.0555C30.8036 36.822 31.038 37.7056 31.0177 38.5845ZM31.7138 40.7673C32.4177 39.1587 32.3419 37.2884 31.4864 35.736C31.2349 35.2798 30.9161 34.8509 30.5302 34.4649C30.4599 34.3946 30.388 34.3267 30.3146 34.261C30.1216 34.0868 29.92 33.929 29.7106 33.7868C29.8896 33.6337 30.0919 33.4899 30.3146 33.347C30.6153 33.1532 30.9536 32.961 31.3263 32.7493C31.3786 32.7196 31.431 32.6899 31.4841 32.6595C31.6117 32.5865 31.7417 32.5117 31.8736 32.4349L34.743 34.2927C34.7507 34.2977 34.7585 34.3025 34.7665 34.3071C34.8706 34.3678 34.9598 34.4288 35.0459 34.4878C35.2261 34.6111 35.4905 34.792 35.8046 34.792C36.0069 34.792 36.2299 34.7163 36.4642 34.5028L36.6769 35.3384L35.0609 38.8428C35.0588 38.8471 35.057 38.8515 35.055 38.8559C34.9576 39.0597 34.9711 39.2812 35.0911 39.4692L35.855 40.7674H31.7138V40.7673ZM40.8435 39.0991L39.862 40.7672H38.5428C38.542 40.7672 38.5413 40.7673 38.5405 40.7673H37.2147L36.2331 39.0991L37.671 35.981H39.4056L40.8435 39.0991ZM41.7146 33.3019C41.5792 33.3814 41.4667 33.4584 41.3757 33.5206C41.3613 33.5304 41.3459 33.5411 41.33 33.5518C41.3262 33.547 41.3221 33.542 41.3181 33.5367C41.3071 33.5227 41.2953 33.5091 41.2831 33.4961L40.7503 32.9318C40.7453 32.9261 40.7399 32.9209 40.7347 32.9154L39.7412 31.8631C39.9278 31.8122 40.1193 31.7508 40.3195 31.6755C40.9749 31.4316 41.6103 31.0731 42.1975 30.6321L44.0878 31.7653L41.7146 33.3019Z" fill="white"/>
</g>
<defs>
<clipPath id="clip0">
<rect width="40" height="40" fill="white" transform="translate(9.52393 10.4762)"/>
</clipPath>
</defs>
</svg>
