<svg width="60" height="60" viewBox="0 0 60 60" fill="none" xmlns="http://www.w3.org/2000/svg">
<rect width="60" height="60" rx="3" fill="#3EAFA9"/>
<g clip-path="url(#clip0)">
<path d="M27.524 33.4762C27.524 33.8444 27.8225 34.1429 28.1907 34.1429C28.5589 34.1429 28.8573 33.8444 28.8573 33.4762C28.8573 31.2709 26.8173 29.4482 24.1907 29.1802V28.4762C24.1907 28.108 23.8922 27.8096 23.524 27.8096C23.1558 27.8096 22.8573 28.108 22.8573 28.4762V29.1802C20.2307 29.4469 18.1907 31.2709 18.1907 33.4762C18.1907 35.6816 20.2307 37.5042 22.8573 37.7722V43.7642C20.9687 43.5256 19.524 42.2929 19.524 40.8096C19.524 40.4414 19.2255 40.1429 18.8573 40.1429C18.4892 40.1429 18.1907 40.4414 18.1907 40.8096C18.1907 43.0149 20.2307 44.8376 22.8573 45.1056V45.8096C22.8573 46.1778 23.1558 46.4762 23.524 46.4762C23.8922 46.4762 24.1907 46.1778 24.1907 45.8096V45.1056C26.8173 44.8389 28.8573 43.0149 28.8573 40.8096C28.8573 38.6042 26.8173 36.7816 24.1907 36.5136V30.5216C26.0793 30.7602 27.524 31.9929 27.524 33.4762ZM19.524 33.4762C19.524 31.9929 20.9687 30.7602 22.8573 30.5216V36.4309C20.9687 36.1922 19.524 34.9596 19.524 33.4762ZM27.524 40.8096C27.524 42.2929 26.0793 43.5256 24.1907 43.7642V37.8549C26.0793 38.0936 27.524 39.3262 27.524 40.8096Z" fill="white"/>
<path d="M11.924 30.5915C11.59 30.4365 11.1937 30.5816 11.0386 30.9155C10.0353 33.075 9.51819 35.4284 9.52397 37.8095C9.52397 46.2142 14.234 50.4762 23.524 50.4762C25.4011 50.5057 27.2741 50.2899 29.0953 49.8342C29.4512 49.7396 29.6629 49.3744 29.5683 49.0185C29.4737 48.6627 29.1085 48.4509 28.7526 48.5455C27.0425 48.9679 25.2853 49.1686 23.524 49.1429C15.0006 49.1429 10.8573 45.4355 10.8573 37.8095C10.8453 35.6213 11.3206 33.4579 12.2486 31.4762C12.4031 31.1422 12.2578 30.7463 11.924 30.5915Z" fill="white"/>
<path d="M47.5238 27.1428H32.8572C31.7526 27.1428 30.8572 28.0383 30.8572 29.1428V48.4762C30.8572 49.5807 31.7526 50.4762 32.8572 50.4762H47.5238C48.6284 50.4762 49.5238 49.5807 49.5238 48.4762V29.1428C49.5238 28.0383 48.6284 27.1428 47.5238 27.1428ZM48.1905 48.4762C48.1905 48.8444 47.892 49.1428 47.5238 49.1428H32.8572C32.489 49.1428 32.1905 48.8444 32.1905 48.4762V29.1428C32.1905 28.7746 32.489 28.4762 32.8572 28.4762H47.5238C47.892 28.4762 48.1905 28.7746 48.1905 29.1428V48.4762Z" fill="white"/>
<path d="M35.524 35.8095H44.8573C45.5937 35.8095 46.1907 35.2126 46.1907 34.4762V31.8095C46.1907 31.0732 45.5937 30.4762 44.8573 30.4762H35.524C34.7876 30.4762 34.1907 31.0732 34.1907 31.8095V34.4762C34.1907 35.2126 34.7876 35.8095 35.524 35.8095ZM35.524 31.8095H44.8573V34.4762H35.524V31.8095Z" fill="white"/>
<path d="M36.8573 37.8096H34.8573C34.4892 37.8096 34.1907 38.108 34.1907 38.4762C34.1907 38.8444 34.4892 39.1429 34.8573 39.1429H36.8573C37.2255 39.1429 37.524 38.8444 37.524 38.4762C37.524 38.108 37.2255 37.8096 36.8573 37.8096Z" fill="white"/>
<path d="M36.8573 40.4762H34.8573C34.4892 40.4762 34.1907 40.7747 34.1907 41.1429C34.1907 41.511 34.4892 41.8095 34.8573 41.8095H36.8573C37.2255 41.8095 37.524 41.511 37.524 41.1429C37.524 40.7747 37.2255 40.4762 36.8573 40.4762Z" fill="white"/>
<path d="M36.8573 43.1428H34.8573C34.4892 43.1428 34.1907 43.4413 34.1907 43.8095C34.1907 44.1777 34.4892 44.4761 34.8573 44.4761H36.8573C37.2255 44.4761 37.524 44.1777 37.524 43.8095C37.524 43.4413 37.2255 43.1428 36.8573 43.1428Z" fill="white"/>
<path d="M36.8573 45.8096H34.8573C34.4892 45.8096 34.1907 46.108 34.1907 46.4762C34.1907 46.8444 34.4892 47.1429 34.8573 47.1429H36.8573C37.2255 47.1429 37.524 46.8444 37.524 46.4762C37.524 46.108 37.2255 45.8096 36.8573 45.8096Z" fill="white"/>
<path d="M41.5241 37.8096H39.5241C39.1559 37.8096 38.8574 38.108 38.8574 38.4762C38.8574 38.8444 39.1559 39.1429 39.5241 39.1429H41.5241C41.8923 39.1429 42.1908 38.8444 42.1908 38.4762C42.1908 38.108 41.8923 37.8096 41.5241 37.8096Z" fill="white"/>
<path d="M41.5241 40.4762H39.5241C39.1559 40.4762 38.8574 40.7747 38.8574 41.1429C38.8574 41.511 39.1559 41.8095 39.5241 41.8095H41.5241C41.8923 41.8095 42.1908 41.511 42.1908 41.1429C42.1908 40.7747 41.8923 40.4762 41.5241 40.4762Z" fill="white"/>
<path d="M41.5241 43.1428H39.5241C39.1559 43.1428 38.8574 43.4413 38.8574 43.8095C38.8574 44.1777 39.1559 44.4761 39.5241 44.4761H41.5241C41.8923 44.4761 42.1908 44.1777 42.1908 43.8095C42.1908 43.4413 41.8923 43.1428 41.5241 43.1428Z" fill="white"/>
<path d="M41.5241 45.8096H39.5241C39.1559 45.8096 38.8574 46.108 38.8574 46.4762C38.8574 46.8444 39.1559 47.1429 39.5241 47.1429H41.5241C41.8923 47.1429 42.1908 46.8444 42.1908 46.4762C42.1908 46.108 41.8923 45.8096 41.5241 45.8096Z" fill="white"/>
<path d="M46.1906 37.8096H44.1906C43.8224 37.8096 43.5239 38.108 43.5239 38.4762C43.5239 38.8444 43.8224 39.1429 44.1906 39.1429H46.1906C46.5588 39.1429 46.8573 38.8444 46.8573 38.4762C46.8573 38.108 46.5588 37.8096 46.1906 37.8096Z" fill="white"/>
<path d="M46.1906 40.4762H44.1906C43.8224 40.4762 43.5239 40.7747 43.5239 41.1429C43.5239 41.511 43.8224 41.8095 44.1906 41.8095H46.1906C46.5588 41.8095 46.8573 41.511 46.8573 41.1429C46.8573 40.7747 46.5588 40.4762 46.1906 40.4762Z" fill="white"/>
<path d="M46.1906 43.1428H44.1906C43.8224 43.1428 43.5239 43.4413 43.5239 43.8095C43.5239 44.1777 43.8224 44.4761 44.1906 44.4761H46.1906C46.5588 44.4761 46.8573 44.1777 46.8573 43.8095C46.8573 43.4413 46.5588 43.1428 46.1906 43.1428Z" fill="white"/>
<path d="M46.1906 45.8096H44.1906C43.8224 45.8096 43.5239 46.108 43.5239 46.4762C43.5239 46.8444 43.8224 47.1429 44.1906 47.1429H46.1906C46.5588 47.1429 46.8573 46.8444 46.8573 46.4762C46.8573 46.108 46.5588 45.8096 46.1906 45.8096Z" fill="white"/>
<path d="M13.7406 11.3182C11.9852 12.9262 15.0692 17.8862 16.8866 20.4762H16.5239C15.9046 20.474 15.3101 20.7193 14.8726 21.1576C14.4365 21.5969 14.1914 22.1906 14.1906 22.8096C14.1934 23.6403 14.6391 24.4065 15.3599 24.8196C14.5817 25.6427 13.8486 26.5073 13.1639 27.4096C12.943 27.7041 13.0027 28.122 13.2972 28.3429C13.5918 28.5638 14.0096 28.5041 14.2306 28.2096C15.054 27.1323 15.9447 26.108 16.8972 25.1429H30.5239C31.3575 25.1429 32.1278 24.6982 32.5446 23.9762C32.9614 23.2543 32.9614 22.3648 32.5446 21.6429C32.1278 20.921 31.3575 20.4762 30.5239 20.4762H30.1612C31.9779 17.8862 35.0619 12.9269 33.3079 11.3182C32.5012 10.5796 31.5612 11.1182 30.7326 11.5896C29.979 12.1056 29.1016 12.4117 28.1906 12.4762C27.4673 12.4747 26.7779 12.17 26.2899 11.6362C25.5604 10.8945 24.5636 10.4768 23.5232 10.4768C22.4829 10.4768 21.4861 10.8945 20.7566 11.6362C20.2678 12.1709 19.5769 12.4756 18.8526 12.4762C17.942 12.4124 17.0651 12.1062 16.3126 11.5896C15.4846 11.1169 14.5452 10.5802 13.7406 11.3182ZM31.2326 22.1016C31.5194 22.3877 31.6053 22.8186 31.45 23.1928C31.2947 23.567 30.929 23.8106 30.5239 23.8096H16.5239C15.9716 23.8096 15.5239 23.3619 15.5239 22.8096C15.5239 22.2573 15.9716 21.8096 16.5239 21.8096H30.5239C30.7894 21.8097 31.0441 21.9146 31.2326 22.1016ZM18.8526 13.8096C19.8933 13.8094 20.8904 13.3912 21.6199 12.6489C22.1068 12.114 22.7966 11.8092 23.5199 11.8092C24.2432 11.8092 24.933 12.114 25.4199 12.6489C26.1504 13.3918 27.1487 13.81 28.1906 13.8096C29.3352 13.7494 30.4426 13.3824 31.3966 12.7469C31.7009 12.5321 32.0453 12.3804 32.4092 12.3009C33.0932 12.9276 31.2852 16.7069 28.5212 20.4762H26.8572V17.1429C26.8572 16.7747 26.5587 16.4762 26.1906 16.4762C25.8224 16.4762 25.5239 16.7747 25.5239 17.1429V20.4762H21.5239V17.1429C21.5239 16.7747 21.2254 16.4762 20.8572 16.4762C20.489 16.4762 20.1906 16.7747 20.1906 17.1429V20.4762H18.5292C15.7652 16.7069 13.9572 12.9276 14.6506 12.2909C15.007 12.3861 15.345 12.5402 15.6506 12.7469C16.6031 13.3823 17.7092 13.7494 18.8526 13.8096Z" fill="white"/>
</g>
<defs>
<clipPath id="clip0">
<rect width="40" height="40" fill="white" transform="translate(9.52393 10.4762)"/>
</clipPath>
</defs>
</svg>
