<svg width="50" height="50" viewBox="0 0 50 50" fill="none" xmlns="http://www.w3.org/2000/svg">
<rect x="0.25" y="0.25" width="49.5" height="49.5" fill="#F0F2F5" stroke="#F0F2F5" stroke-width="0.5"/>
<path d="M7.24707 7.60889H43.479V43.8408H7.24707V7.60889Z" fill="#F0F2F5"/>
<mask id="mask0" mask-type="alpha" maskUnits="userSpaceOnUse" x="7" y="7" width="37" height="37">
<rect x="7.24707" y="7.60889" width="36.2319" height="36.2319" fill="white"/>
</mask>
<g mask="url(#mask0)">
<path fill-rule="evenodd" clip-rule="evenodd" d="M14.7957 12.1379C13.1305 12.1379 11.7764 13.4921 11.7764 15.1573V36.2925C11.7764 37.9577 13.1305 39.3119 14.7957 39.3119H35.931C37.5961 39.3119 38.9503 37.9577 38.9503 36.2925V15.1573C38.9503 13.4921 37.5961 12.1379 35.931 12.1379H14.7957ZM14.7957 15.1573H35.931L35.934 36.2925H14.7957V15.1573ZM20.8343 27.2346L16.3054 33.2732H34.4213L26.873 22.7056L22.344 28.7442L20.8343 27.2346ZM22.344 21.9507C22.344 20.7001 21.3302 19.6862 20.0795 19.6862C18.8289 19.6862 17.815 20.7001 17.815 21.9507C17.815 23.2014 18.8289 24.2152 20.0795 24.2152C21.3302 24.2152 22.344 23.2014 22.344 21.9507Z" fill="#C9C9D4"/>
</g>
<path d="M7.24707 7.60889V6.60889H6.24707V7.60889H7.24707ZM43.479 7.60889H44.479V6.60889H43.479V7.60889ZM43.479 43.8408V44.8408H44.479V43.8408H43.479ZM7.24707 43.8408H6.24707V44.8408H7.24707V43.8408ZM7.24707 8.60889H43.479V6.60889H7.24707V8.60889ZM42.479 7.60889V43.8408H44.479V7.60889H42.479ZM43.479 42.8408H7.24707V44.8408H43.479V42.8408ZM8.24707 43.8408V7.60889H6.24707V43.8408H8.24707Z" fill="#F0F2F5"/>
</svg>
