<svg width="60" height="60" viewBox="0 0 60 60" fill="none" xmlns="http://www.w3.org/2000/svg">
<rect width="60" height="60" rx="3" fill="#06DDB8"/>
<g clip-path="url(#clip0)">
<path d="M49.5239 24.8096V23.4762H46.8573V14.1429C46.8573 13.7748 46.559 13.4763 46.1909 13.4762C46.1908 13.4762 46.1907 13.4762 46.1906 13.4762H31.5239C31.1558 13.4762 30.8573 13.7745 30.8573 14.1426C30.8573 14.1427 30.8573 14.1428 30.8573 14.1429V23.4762H28.8573V14.1429C28.8573 13.7748 28.559 13.4763 28.1909 13.4762C28.1908 13.4762 28.1907 13.4762 28.1906 13.4762H13.5239C13.1558 13.4762 12.8573 13.7745 12.8573 14.1426C12.8573 14.1427 12.8573 14.1428 12.8573 14.1429V23.4762H10.8573V10.8096H9.52393V49.4762C9.52384 49.8443 9.82218 50.1428 10.1903 50.1429C10.1903 50.1429 10.1905 50.1429 10.1906 50.1429H49.5239V48.8096H46.8573V39.4762C46.8573 39.1081 46.559 38.8097 46.1909 38.8096C46.1908 38.8096 46.1907 38.8096 46.1906 38.8096H31.5239C31.1558 38.8095 30.8573 39.1078 30.8573 39.4759C30.8573 39.476 30.8573 39.4761 30.8573 39.4762V48.8096H28.8573V39.4762C28.8573 39.1081 28.559 38.8097 28.1909 38.8096C28.1908 38.8096 28.1907 38.8096 28.1906 38.8096H13.5239C13.1558 38.8095 12.8573 39.1078 12.8573 39.4759C12.8573 39.476 12.8573 39.4761 12.8573 39.4762V48.8096H10.8573V37.4762H49.5239V36.1429H46.8573V26.8096C46.8573 26.4415 46.559 26.143 46.1909 26.1429C46.1908 26.1429 46.1907 26.1429 46.1906 26.1429H31.5239C31.1558 26.1428 30.8573 26.4412 30.8573 26.8092C30.8573 26.8093 30.8573 26.8095 30.8573 26.8096V36.1429H28.8573V26.8096C28.8573 26.4415 28.559 26.143 28.1909 26.1429C28.1908 26.1429 28.1907 26.1429 28.1906 26.1429H13.5239C13.1558 26.1428 12.8573 26.4412 12.8573 26.8092C12.8573 26.8093 12.8573 26.8095 12.8573 26.8096V36.1429H10.8573V24.8096H49.5239ZM37.5239 14.8096H40.1906V17.4762H37.5239V14.8096ZM32.1906 14.8096H36.1906V18.1429C36.1905 18.511 36.4888 18.8095 36.8569 18.8096C36.857 18.8096 36.8572 18.8096 36.8573 18.8096H40.8573C41.2253 18.8097 41.5238 18.5113 41.5239 18.1432C41.5239 18.1432 41.5239 18.143 41.5239 18.1429V14.8096H45.5239V23.4762H32.1906V14.8096ZM19.5239 14.8096H22.1906V17.4762H19.5239V14.8096ZM14.1906 14.8096H18.1906V18.1429C18.1905 18.511 18.4888 18.8095 18.8569 18.8096C18.857 18.8096 18.8572 18.8096 18.8573 18.8096H22.8573C23.2253 18.8097 23.5238 18.5113 23.5239 18.1432C23.5239 18.1432 23.5239 18.143 23.5239 18.1429V14.8096H27.5239V23.4762H14.1906V14.8096ZM37.5239 40.1429H40.1906V42.8096H37.5239V40.1429ZM32.1906 40.1429H36.1906V43.4762C36.1905 43.8443 36.4888 44.1428 36.8569 44.1429C36.857 44.1429 36.8572 44.1429 36.8573 44.1429H40.8573C41.2253 44.143 41.5238 43.8447 41.5239 43.4766C41.5239 43.4765 41.5239 43.4763 41.5239 43.4762V40.1429H45.5239V48.8096H32.1906V40.1429ZM19.5239 40.1429H22.1906V42.8096H19.5239V40.1429ZM14.1906 40.1429H18.1906V43.4762C18.1905 43.8443 18.4888 44.1428 18.8569 44.1429C18.857 44.1429 18.8572 44.1429 18.8573 44.1429H22.8573C23.2253 44.143 23.5238 43.8447 23.5239 43.4766C23.5239 43.4765 23.5239 43.4763 23.5239 43.4762V40.1429H27.5239V48.8096H14.1906V40.1429ZM37.5239 28.1429H40.1906V30.8096H37.5239V28.1429ZM32.1906 27.4762H36.1906V31.4762C36.1905 31.8443 36.4888 32.1428 36.8569 32.1429C36.857 32.1429 36.8572 32.1429 36.8573 32.1429H40.8573C41.2253 32.143 41.5238 31.8447 41.5239 31.4766C41.5239 31.4765 41.5239 31.4763 41.5239 31.4762V27.4762H45.5239V36.1429H32.1906V27.4762ZM19.5239 27.4762H22.1906V30.1429H19.5239V27.4762ZM14.1906 27.4762H18.1906V30.8096C18.1905 31.1777 18.4888 31.4762 18.8569 31.4762C18.857 31.4762 18.8572 31.4762 18.8573 31.4762H22.8573C23.2253 31.4763 23.5238 31.178 23.5239 30.8099C23.5239 30.8098 23.5239 30.8097 23.5239 30.8096V27.4762H27.5239V36.1429H14.1906V27.4762Z" fill="white"/>
</g>
<defs>
<clipPath id="clip0">
<rect width="40" height="40" fill="white" transform="translate(9.52393 10.4762)"/>
</clipPath>
</defs>
</svg>
