<svg width="60" height="60" viewBox="0 0 60 60" fill="none" xmlns="http://www.w3.org/2000/svg">
<path d="M27.5478 16.7143H14.2144C13.7541 16.7143 13.3811 17.0874 13.3811 17.5476C13.3811 18.0078 13.7541 18.3809 14.2144 18.3809H27.5478C28.0081 18.3809 28.3811 18.0078 28.3811 17.5476C28.3811 17.0874 28.0081 16.7143 27.5478 16.7143Z" fill="url(#paint0_linear)"/>
<path d="M17.8397 38.0989C15.9143 37.7502 14.075 37.0898 12.3724 36.1364C12.0556 35.9589 11.6595 36.0049 11.3925 36.2504C9.89341 37.6285 7.94197 38.3875 5.8977 38.3875C5.52131 38.3875 5.14849 38.3621 4.78058 38.3118C6.39993 37.1911 7.65884 35.5966 8.35628 33.7336C8.46695 33.4378 8.39912 33.1053 8.18125 32.8757C5.09004 29.6165 3.38769 25.3568 3.38769 20.881C3.38769 11.2279 11.3029 3.37453 21.0322 3.37453C29.5588 3.37453 36.8578 9.4049 38.3878 17.7135C38.4708 18.1644 38.9072 18.4632 39.3612 18.3809C39.8158 18.2984 40.1169 17.8661 40.0339 17.4151C38.3586 8.31743 30.3673 1.71428 21.0322 1.71428C10.3804 1.71428 1.71436 10.3124 1.71436 20.881C1.71436 25.6022 3.44459 30.1041 6.5976 33.6178C5.74933 35.5118 4.18331 37.022 2.237 37.8037C1.92118 37.9307 1.71436 38.2351 1.71436 38.5732C1.71436 38.9114 1.92118 39.2158 2.23711 39.3427C3.40164 39.8104 4.63322 40.0476 5.8977 40.0476C8.16173 40.0476 10.3315 39.2763 12.0718 37.8639C13.7889 38.7577 15.6253 39.3855 17.5392 39.7321C17.9933 39.8145 18.4294 39.5156 18.5126 39.0645C18.5954 38.6136 18.2942 38.1812 17.8397 38.0989V38.0989Z" fill="url(#paint1_linear)"/>
<path d="M14.2578 23.381C13.7735 23.381 13.3811 23.7541 13.3811 24.2143C13.3811 24.6745 13.7735 25.0476 14.2578 25.0476H24.1711C24.6554 25.0476 25.0478 24.6745 25.0478 24.2143C25.0478 23.7541 24.6554 23.381 24.1711 23.381H14.2578Z" fill="url(#paint2_linear)"/>
<path d="M28.3811 20.8809C28.3811 20.4207 28.0081 20.0476 27.5478 20.0476H14.2144C13.7541 20.0476 13.3811 20.4207 13.3811 20.8809C13.3811 21.3412 13.7541 21.7143 14.2144 21.7143H27.5478C28.0081 21.7143 28.3811 21.3412 28.3811 20.8809Z" fill="url(#paint3_linear)"/>
<path d="M43.3811 31.7143C41.8456 31.7143 40.3928 32.2286 39.2144 33.1768C38.0362 32.2287 36.5834 31.7143 35.0478 31.7143C31.3718 31.7143 28.3811 34.7049 28.3811 38.3809C28.3811 41.8381 30.2107 45.2349 33.6718 48.2043C36.2294 50.3984 38.7563 51.5868 38.8625 51.6364C38.9741 51.6883 39.0943 51.7143 39.2144 51.7143C39.3346 51.7143 39.4548 51.6883 39.5663 51.6364C39.6726 51.5868 42.1994 50.3984 44.7571 48.2043C48.2182 45.2349 50.0478 41.8381 50.0478 38.3809C50.0478 34.7049 47.0571 31.7143 43.3811 31.7143V31.7143ZM39.2144 49.9483C37.4912 49.0488 30.0478 44.7908 30.0478 38.3809C30.0478 35.6239 32.2908 33.3809 35.0478 33.3809C36.4019 33.3809 37.6702 33.9145 38.6192 34.8833C38.7759 35.0433 38.9904 35.1335 39.2144 35.1335C39.4384 35.1335 39.653 35.0433 39.8097 34.8834C40.7588 33.9146 42.0271 33.3811 43.3811 33.3811C46.1381 33.3811 48.3811 35.6241 48.3811 38.3811C48.3811 44.7913 40.9367 49.0495 39.2144 49.9483V49.9483Z" fill="url(#paint4_linear)"/>
<path d="M57.8623 56.1371C55.9313 55.3553 54.3774 53.8451 53.5357 51.9511C56.6642 48.4374 58.3809 43.9356 58.3809 39.2143C58.3809 28.6458 49.7827 20.0476 39.2142 20.0476C28.6457 20.0476 20.0476 28.6458 20.0476 39.2143C20.0476 49.7827 28.6457 58.3809 39.2142 58.3809C42.314 58.3809 45.3749 57.6274 48.1044 56.1972C49.8312 57.6096 51.984 58.3809 54.2303 58.3809C55.4849 58.3809 56.707 58.1437 57.8623 57.6759C58.1757 57.549 58.3809 57.2447 58.3809 56.9064C58.3809 56.5683 58.1757 56.2639 57.8623 56.1371ZM54.2303 56.7207C52.2022 56.7207 50.266 55.9617 48.7784 54.5836C48.6211 54.4379 48.4185 54.3624 48.214 54.3624C48.0743 54.3624 47.9338 54.3976 47.8061 54.4696C45.1973 55.9423 42.2262 56.7207 39.2142 56.7207C29.5612 56.7207 21.7079 48.8674 21.7079 39.2143C21.7079 29.5612 29.5612 21.7079 39.2142 21.7079C48.8674 21.708 56.7207 29.5613 56.7207 39.2143C56.7207 43.6901 55.0316 47.9498 51.9645 51.2088C51.7483 51.4386 51.6809 51.7711 51.791 52.0667C52.483 53.9298 53.732 55.5243 55.3387 56.6449C54.9737 56.6953 54.6038 56.7207 54.2303 56.7207V56.7207Z" fill="url(#paint5_linear)"/>
<defs>
<linearGradient id="paint0_linear" x1="13.3811" y1="17.0601" x2="28.3436" y2="17.8107" gradientUnits="userSpaceOnUse">
<stop stop-color="#5465FF"/>
<stop offset="1" stop-color="#04DEB7"/>
</linearGradient>
<linearGradient id="paint1_linear" x1="1.71436" y1="9.66796" x2="40.0468" y2="9.88161" gradientUnits="userSpaceOnUse">
<stop stop-color="#5465FF"/>
<stop offset="1" stop-color="#04DEB7"/>
</linearGradient>
<linearGradient id="paint2_linear" x1="13.3811" y1="23.7268" x2="25.0301" y2="24.1813" gradientUnits="userSpaceOnUse">
<stop stop-color="#5465FF"/>
<stop offset="1" stop-color="#04DEB7"/>
</linearGradient>
<linearGradient id="paint3_linear" x1="13.3811" y1="20.3934" x2="28.3436" y2="21.144" gradientUnits="userSpaceOnUse">
<stop stop-color="#5465FF"/>
<stop offset="1" stop-color="#04DEB7"/>
</linearGradient>
<linearGradient id="paint4_linear" x1="28.3811" y1="35.864" x2="50.0471" y2="35.9948" gradientUnits="userSpaceOnUse">
<stop stop-color="#5465FF"/>
<stop offset="1" stop-color="#04DEB7"/>
</linearGradient>
<linearGradient id="paint5_linear" x1="20.0476" y1="28.0013" x2="58.38" y2="28.2149" gradientUnits="userSpaceOnUse">
<stop stop-color="#5465FF"/>
<stop offset="1" stop-color="#04DEB7"/>
</linearGradient>
</defs>
</svg>
