<svg width="40" height="40" viewBox="0 0 40 40" fill="none" xmlns="http://www.w3.org/2000/svg">
<path d="M28.38 0H11.62C4.34 0 0 4.34 0 11.62V28.36C0 35.66 4.34 40 11.62 40H28.36C35.64 40 39.98 35.66 39.98 28.38V11.62C40 4.34 35.66 0 28.38 0Z" fill="#DF3838"/>
<path d="M29.09 14.98C28.24 14.04 26.82 13.57 24.76 13.57H24.52V13.53C24.52 11.85 24.52 9.77002 20.76 9.77002H19.24C15.48 9.77002 15.48 11.86 15.48 13.53V13.58H15.24C13.17 13.58 11.76 14.05 10.91 14.99C9.92004 16.09 9.95004 17.57 10.05 18.58L10.06 18.65L10.16 19.7C10.17 19.71 10.19 19.73 10.21 19.74C10.54 19.96 10.88 20.18 11.24 20.38C11.38 20.47 11.53 20.55 11.68 20.63C13.39 21.57 15.27 22.2 17.18 22.51C17.27 23.45 17.68 24.55 19.87 24.55C22.06 24.55 22.49 23.46 22.56 22.49C24.6 22.16 26.57 21.45 28.35 20.41C28.41 20.38 28.45 20.35 28.5 20.32C28.96 20.06 29.39 19.78 29.81 19.47C29.83 19.46 29.85 19.44 29.86 19.42L29.9 19.06L29.95 18.59C29.96 18.53 29.96 18.48 29.97 18.41C30.05 17.4 30.03 16.02 29.09 14.98ZM21.09 21.83C21.09 22.89 21.09 23.05 19.86 23.05C18.63 23.05 18.63 22.86 18.63 21.84V20.58H21.09V21.83ZM16.91 13.57V13.53C16.91 11.83 16.91 11.2 19.24 11.2H20.76C23.09 11.2 23.09 11.84 23.09 13.53V13.58H16.91V13.57Z" fill="white"/>
<path opacity="0.4" d="M28.5002 20.2999C28.4502 20.3299 28.4002 20.3599 28.3502 20.3899C26.5702 21.4299 24.6002 22.1299 22.5602 22.4699C22.4802 23.4299 22.0602 24.5299 19.8702 24.5299C17.6802 24.5299 17.2602 23.4399 17.1802 22.4899C15.2702 22.1899 13.3902 21.5599 11.6802 20.6099C11.5302 20.5299 11.3802 20.4499 11.2402 20.3599C10.8802 20.1599 10.5402 19.9399 10.2102 19.7199C10.1902 19.7099 10.1702 19.6899 10.1602 19.6799L10.7702 26.1899C10.9802 28.1799 11.8002 30.2299 16.2002 30.2299H23.8202C28.2202 30.2299 29.0402 28.1799 29.2502 26.1799L29.8802 19.3999C29.8702 19.4199 29.8502 19.4399 29.8302 19.4499C29.4002 19.7599 28.9602 20.0499 28.5002 20.2999Z" fill="white"/>
</svg>
