<svg width="60" height="60" viewBox="0 0 60 60" fill="none" xmlns="http://www.w3.org/2000/svg">
<rect width="60" height="60" rx="3" fill="#00F5E9"/>
<g clip-path="url(#clip0)">
<path d="M24.8573 34.4762C21.1754 34.4762 18.1907 37.4609 18.1907 41.1429C18.1907 44.8248 21.1754 47.8095 24.8573 47.8095C28.5393 47.8095 31.524 44.8248 31.524 41.1429C31.5201 37.4625 28.5377 34.4801 24.8573 34.4762ZM24.8573 46.4762C21.9117 46.4762 19.524 44.0885 19.524 41.1429C19.524 38.1972 21.9117 35.8095 24.8573 35.8095C27.803 35.8095 30.1907 38.1972 30.1907 41.1429C30.1874 44.0869 27.8014 46.4729 24.8573 46.4762Z" fill="white"/>
<path d="M24.8573 39.1428C25.6715 39.1428 26.1907 39.5374 26.1907 39.8095H27.524C27.524 38.8622 26.6848 38.095 25.524 37.8762V37.1428H24.1907V37.8762C23.0299 38.0933 22.1907 38.8609 22.1907 39.8095C22.1907 40.9316 23.3619 41.8095 24.8573 41.8095C25.6715 41.8095 26.1907 42.204 26.1907 42.4762C26.1907 42.7483 25.6715 43.1428 24.8573 43.1428C24.0432 43.1428 23.524 42.7483 23.524 42.4762H22.1907C22.1907 43.4234 23.0299 44.1907 24.1907 44.4094V45.1428H25.524V44.4094C26.6848 44.1923 27.524 43.4247 27.524 42.4762C27.524 41.3541 26.3528 40.4762 24.8573 40.4762C24.0432 40.4762 23.524 40.0816 23.524 39.8095C23.524 39.5374 24.0432 39.1428 24.8573 39.1428Z" fill="white"/>
<path d="M43.5239 49.1429H15.5239V33.1429H26.1906C27.2951 33.1429 28.1906 32.2474 28.1906 31.1429V14.4762H35.5239V22.4762H43.5239V31.8095H44.8573V21.5335L36.4666 13.1429H28.1906V12.4762C28.1906 11.3717 27.2951 10.4762 26.1906 10.4762H11.5239C10.4194 10.4762 9.52393 11.3717 9.52393 12.4762V31.1429C9.52393 32.2474 10.4194 33.1429 11.5239 33.1429H14.1906V50.4762H44.8573V41.1429H43.5239V49.1429ZM36.8573 15.4189L42.5812 21.1429H36.8573V15.4189ZM10.8573 31.1429V12.4762C10.8573 12.108 11.1558 11.8095 11.5239 11.8095H26.1906C26.5588 11.8095 26.8573 12.108 26.8573 12.4762V31.1429C26.8573 31.511 26.5588 31.8095 26.1906 31.8095H11.5239C11.1558 31.8095 10.8573 31.511 10.8573 31.1429Z" fill="white"/>
<path d="M30.8572 27.1428H32.1905V28.4762H30.8572V27.1428Z" fill="white"/>
<path d="M33.5239 27.1428H41.5239V28.4762H33.5239V27.1428Z" fill="white"/>
<path d="M30.8572 24.4762H32.1905V25.8095H30.8572V24.4762Z" fill="white"/>
<path d="M33.5239 24.4762H41.5239V25.8095H33.5239V24.4762Z" fill="white"/>
<path d="M30.8572 29.8096H32.1905V31.1429H30.8572V29.8096Z" fill="white"/>
<path d="M33.5239 29.8096H41.5239V31.1429H33.5239V29.8096Z" fill="white"/>
<path d="M30.8572 32.4762H32.1905V33.8095H30.8572V32.4762Z" fill="white"/>
<path d="M33.5239 32.4762H41.5239V33.8095H33.5239V32.4762Z" fill="white"/>
<path d="M26.1906 12.4762H11.5239V17.1429H26.1906V12.4762ZM24.8573 15.8095H12.8573V13.8095H24.8573V15.8095Z" fill="white"/>
<path d="M14.8573 17.8096H13.524C12.7877 17.8096 12.1907 18.4066 12.1907 19.1429V20.4762C12.1907 21.2126 12.7877 21.8096 13.524 21.8096H14.8573C15.5937 21.8096 16.1907 21.2126 16.1907 20.4762V19.1429C16.1907 18.4066 15.5937 17.8096 14.8573 17.8096ZM13.524 20.4762V19.1429H14.8573V20.4762H13.524Z" fill="white"/>
<path d="M19.5238 17.8096H18.1905C17.4542 17.8096 16.8572 18.4066 16.8572 19.1429V20.4762C16.8572 21.2126 17.4542 21.8096 18.1905 21.8096H19.5238C20.2602 21.8096 20.8572 21.2126 20.8572 20.4762V19.1429C20.8572 18.4066 20.2602 17.8096 19.5238 17.8096ZM18.1905 20.4762V19.1429H19.5238V20.4762H18.1905Z" fill="white"/>
<path d="M24.1906 17.8096H22.8573C22.1209 17.8096 21.5239 18.4066 21.5239 19.1429V20.4762C21.5239 21.2126 22.1209 21.8096 22.8573 21.8096H24.1906C24.9269 21.8096 25.5239 21.2126 25.5239 20.4762V19.1429C25.5239 18.4066 24.9269 17.8096 24.1906 17.8096ZM22.8573 20.4762V19.1429H24.1906V20.4762H22.8573Z" fill="white"/>
<path d="M14.8573 22.4762H13.524C12.7877 22.4762 12.1907 23.0732 12.1907 23.8095V25.1429C12.1907 25.8792 12.7877 26.4762 13.524 26.4762H14.8573C15.5937 26.4762 16.1907 25.8792 16.1907 25.1429V23.8095C16.1907 23.0732 15.5937 22.4762 14.8573 22.4762ZM13.524 25.1429V23.8095H14.8573V25.1429H13.524Z" fill="white"/>
<path d="M19.5238 22.4762H18.1905C17.4542 22.4762 16.8572 23.0732 16.8572 23.8095V25.1429C16.8572 25.8792 17.4542 26.4762 18.1905 26.4762H19.5238C20.2602 26.4762 20.8572 25.8792 20.8572 25.1429V23.8095C20.8572 23.0732 20.2602 22.4762 19.5238 22.4762ZM18.1905 25.1429V23.8095H19.5238V25.1429H18.1905Z" fill="white"/>
<path d="M24.1906 22.4762H22.8573C22.1209 22.4762 21.5239 23.0732 21.5239 23.8095V25.1429C21.5239 25.8792 22.1209 26.4762 22.8573 26.4762H24.1906C24.9269 26.4762 25.5239 25.8792 25.5239 25.1429V23.8095C25.5239 23.0732 24.9269 22.4762 24.1906 22.4762ZM22.8573 25.1429V23.8095H24.1906V25.1429H22.8573Z" fill="white"/>
<path d="M14.8573 27.1428H13.524C12.7877 27.1428 12.1907 27.7398 12.1907 28.4762V29.8095C12.1907 30.5458 12.7877 31.1428 13.524 31.1428H14.8573C15.5937 31.1428 16.1907 30.5458 16.1907 29.8095V28.4762C16.1907 27.7398 15.5937 27.1428 14.8573 27.1428ZM13.524 29.8095V28.4762H14.8573V29.8095H13.524Z" fill="white"/>
<path d="M19.5238 27.1428H18.1905C17.4542 27.1428 16.8572 27.7398 16.8572 28.4762V29.8095C16.8572 30.5458 17.4542 31.1428 18.1905 31.1428H19.5238C20.2602 31.1428 20.8572 30.5458 20.8572 29.8095V28.4762C20.8572 27.7398 20.2602 27.1428 19.5238 27.1428ZM18.1905 29.8095V28.4762H19.5238V29.8095H18.1905Z" fill="white"/>
<path d="M24.1906 27.1428H22.8573C22.1209 27.1428 21.5239 27.7398 21.5239 28.4762V29.8095C21.5239 30.5458 22.1209 31.1428 22.8573 31.1428H24.1906C24.9269 31.1428 25.5239 30.5458 25.5239 29.8095V28.4762C25.5239 27.7398 24.9269 27.1428 24.1906 27.1428ZM22.8573 29.8095V28.4762H24.1906V29.8095H22.8573Z" fill="white"/>
<path d="M48.9185 31.7483C48.1271 30.9928 46.882 30.9928 46.0907 31.7483L34.6619 43.1767C34.6066 43.2327 34.5614 43.2978 34.5285 43.3694L32.9191 46.8642C32.8029 47.1174 32.8566 47.4166 33.0539 47.6135C33.2508 47.8108 33.55 47.8645 33.8032 47.7483L37.298 46.1389C37.3696 46.106 37.4347 46.0611 37.4907 46.0055L48.9185 34.5767C49.6997 33.7958 49.6997 32.5292 48.9185 31.7483ZM36.6313 44.9775L34.8846 45.7821L35.6893 44.0354L44.2104 35.5136L45.1532 36.4563L36.6313 44.9775ZM46.0978 35.5107L45.1551 34.5683L45.6219 34.1015L46.5646 35.0442L46.0978 35.5107ZM47.978 33.6308L47.5067 34.1021L46.564 33.1594L47.036 32.6881C47.2993 32.4361 47.7144 32.4361 47.978 32.6881C48.2381 32.9485 48.2381 33.3704 47.978 33.6308Z" fill="white"/>
</g>
<defs>
<clipPath id="clip0">
<rect width="40" height="40" fill="white" transform="translate(9.52393 10.4762)"/>
</clipPath>
</defs>
</svg>
