<svg width="60" height="60" viewBox="0 0 60 60" fill="none" xmlns="http://www.w3.org/2000/svg">
<path d="M52.53 37.104V22.8178C54.8947 22.2476 56.6575 20.1155 56.6575 17.5781C56.6575 14.6058 54.2392 12.1875 51.2669 12.1875C49.6779 12.1875 48.2477 12.8789 47.2603 13.9762L35.1886 7.00664C35.3494 6.49617 35.4365 5.95336 35.4365 5.39062C35.4365 2.41828 33.0182 0 30.0458 0C27.0735 0 24.6552 2.41828 24.6552 5.39062C24.6552 5.95348 24.7423 6.49629 24.9029 7.00664L12.7705 14.0114C11.782 12.894 10.3391 12.1875 8.7334 12.1875C5.76106 12.1875 3.34277 14.6058 3.34277 17.5781C3.34277 20.148 5.15098 22.3023 7.56152 22.8389V24.6391C7.56152 25.2862 8.08629 25.811 8.7334 25.811C9.38051 25.811 9.90528 25.2862 9.90528 24.6391V22.8389C11.0039 22.5942 11.9777 22.0145 12.7118 21.2113L18.7826 24.7649C18.0397 26.3568 17.6238 28.1305 17.6238 30C17.6238 31.8609 18.036 33.6271 18.7724 35.2133L12.7248 38.7244C11.9892 37.9139 11.0104 37.3289 9.90528 37.0828V35.2734C9.90528 34.6263 9.38051 34.1016 8.7334 34.1016C8.08629 34.1016 7.56152 34.6263 7.56152 35.2734V37.0829C5.15098 37.6196 3.34277 39.7739 3.34277 42.3437C3.34277 45.3161 5.76106 47.7343 8.7334 47.7343C10.3143 47.7343 11.7383 47.0502 12.7252 45.9626L24.9028 52.9934C24.742 53.5037 24.6551 54.0465 24.6551 54.6094C24.6551 57.5817 27.0734 60 30.0457 60C33.0181 60 35.4363 57.5817 35.4363 54.6094C35.4363 54.0465 35.3493 53.5037 35.1885 52.9932L47.3071 45.9966C48.2926 47.0641 49.7026 47.7342 51.2667 47.7342C54.2391 47.7342 56.6574 45.3159 56.6574 42.3436C56.6575 39.8064 54.8947 37.6743 52.53 37.104ZM47.3077 38.6902L41.319 35.2133C42.0556 33.6271 42.4676 31.8608 42.4676 30C42.4676 28.1306 42.0517 26.3568 41.3088 24.7649L47.321 21.2456C48.072 22.0529 49.0661 22.6309 50.1863 22.8598V37.062C49.0595 37.2922 48.0601 37.8755 47.3077 38.6902V38.6902ZM30.0458 40.0781C27.7478 40.0781 25.6282 39.3034 23.931 38.0036C24.1595 36.2024 25.7004 34.8047 27.5626 34.8047H32.5289C34.3913 34.8047 35.9322 36.2023 36.1607 38.0036C34.4634 39.3034 32.3439 40.0781 30.0458 40.0781ZM32.5324 29.9742C32.5324 31.3453 31.4168 32.4609 30.0457 32.4609C28.6746 32.4609 27.559 31.3453 27.559 29.9742V29.344C27.559 27.9729 28.6746 26.8573 30.0457 26.8573C31.4168 26.8573 32.5324 27.9729 32.5324 29.344V29.9742ZM38.0527 36.1106C37.3308 34.4248 35.859 33.1338 34.059 32.6592C34.5748 31.8908 34.8762 30.9673 34.8762 29.9743V29.3441C34.8762 26.6805 32.7093 24.5136 30.0457 24.5136C27.3822 24.5136 25.2152 26.6805 25.2152 29.3441V29.9743C25.2152 30.9673 25.5166 31.8909 26.0324 32.6592C24.2324 33.1339 22.7607 34.4248 22.0389 36.1107C20.741 34.4141 19.9677 32.2962 19.9677 30C19.9677 24.4429 24.4887 19.9219 30.0458 19.9219C35.603 19.9219 40.124 24.4429 40.124 30C40.124 32.2962 39.3505 34.4141 38.0527 36.1106V36.1106ZM51.2669 14.5312C52.947 14.5312 54.3137 15.898 54.3137 17.5781C54.3137 19.2582 52.947 20.625 51.2669 20.625C49.5867 20.625 48.22 19.2582 48.22 17.5781C48.22 15.898 49.5867 14.5312 51.2669 14.5312ZM46.1076 16.0171C45.9577 16.5115 45.8762 17.0354 45.8762 17.5781C45.8762 18.1522 45.9673 18.7054 46.1344 19.2246L40.122 22.744C38.0794 19.9154 34.877 17.9777 31.2178 17.6337V10.6514C32.3115 10.4079 33.281 9.83215 34.014 9.03469L46.1076 16.0171ZM30.0458 2.34375C31.7259 2.34375 33.0927 3.71051 33.0927 5.39062C33.0927 7.07074 31.7259 8.4375 30.0458 8.4375C28.3657 8.4375 26.999 7.07074 26.999 5.39062C26.999 3.71051 28.3657 2.34375 30.0458 2.34375ZM8.7334 20.625C7.05328 20.625 5.68652 19.2582 5.68652 17.5781C5.68652 15.898 7.05328 14.5312 8.7334 14.5312C10.4135 14.5312 11.7803 15.898 11.7803 17.5781C11.7803 19.2582 10.4135 20.625 8.7334 20.625ZM13.8811 19.1801C14.0389 18.6738 14.1241 18.1357 14.1241 17.5781C14.1241 17.0518 14.0469 16.5435 13.9057 16.0623L26.0777 9.03469C26.8106 9.83215 27.7804 10.4079 28.874 10.6514V17.6338C25.2148 17.9779 22.0124 19.9155 19.9698 22.7441L13.8811 19.1801ZM8.7334 45.3906C7.05328 45.3906 5.68652 44.0238 5.68652 42.3437C5.68652 40.6636 7.05328 39.2968 8.7334 39.2968C10.4135 39.2968 11.7803 40.6636 11.7803 42.3437C11.7803 44.0238 10.4135 45.3906 8.7334 45.3906ZM13.8865 43.9267C14.0406 43.4259 14.124 42.8944 14.124 42.3437C14.124 41.7928 14.0406 41.2611 13.8863 40.7602L19.9555 37.2366C21.9975 40.0757 25.2062 42.0213 28.8738 42.3662V49.3486C27.7801 49.5921 26.8105 50.1679 26.0776 50.9653L13.8865 43.9267ZM30.0458 57.6562C28.3657 57.6562 26.999 56.2895 26.999 54.6094C26.999 52.9293 28.3657 51.5625 30.0458 51.5625C31.7259 51.5625 33.0927 52.9293 33.0927 54.6094C33.0927 56.2895 31.7259 57.6562 30.0458 57.6562ZM34.0138 50.9652C33.2809 50.1677 32.3113 49.592 31.2176 49.3485V42.3661C34.8852 42.0213 38.0939 40.0755 40.1359 37.2364L46.1281 40.7153C45.9648 41.2293 45.8761 41.7762 45.8761 42.3436C45.8761 42.9107 45.9647 43.4573 46.1278 43.9711L34.0138 50.9652ZM51.2669 45.3906C49.5867 45.3906 48.22 44.0238 48.22 42.3437C48.22 40.6636 49.5867 39.2968 51.2669 39.2968C52.947 39.2968 54.3137 40.6636 54.3137 42.3437C54.3137 44.0238 52.947 45.3906 51.2669 45.3906Z" fill="url(#paint0_linear)"/>
<path d="M8.69409 31.1871C9.0023 31.1871 9.30464 31.0617 9.52261 30.8438C9.74058 30.6246 9.86597 30.3235 9.86597 30.0153C9.86597 29.7071 9.7407 29.4047 9.52261 29.1867C9.30464 28.9676 9.0023 28.8434 8.69409 28.8434C8.38589 28.8434 8.08355 28.9676 7.86569 29.1867C7.64772 29.4047 7.52222 29.7071 7.52222 30.0153C7.52222 30.3235 7.64761 30.6246 7.86569 30.8438C8.08355 31.0617 8.38601 31.1871 8.69409 31.1871Z" fill="url(#paint1_linear)"/>
<defs>
<linearGradient id="paint0_linear" x1="3.34277" y1="12.4492" x2="56.6566" y2="12.7133" gradientUnits="userSpaceOnUse">
<stop stop-color="#5465FF"/>
<stop offset="1" stop-color="#04DEB7"/>
</linearGradient>
<linearGradient id="paint1_linear" x1="7.52222" y1="29.3297" x2="9.86591" y2="29.3427" gradientUnits="userSpaceOnUse">
<stop stop-color="#5465FF"/>
<stop offset="1" stop-color="#04DEB7"/>
</linearGradient>
</defs>
</svg>
