<svg width="60" height="60" viewBox="0 0 60 60" fill="none" xmlns="http://www.w3.org/2000/svg">
<path d="M57.2404 41.0006C57.4842 39.6786 57.4842 38.3284 57.2404 37.0064L59.6594 35.6094C59.9407 35.45 60.0626 35.1218 59.9688 34.8124C59.3406 32.7872 58.2624 30.9495 56.856 29.4306C56.6403 29.1962 56.2934 29.1399 56.0122 29.2993L53.5931 30.6964C52.5712 29.8244 51.3992 29.1493 50.1334 28.6993V25.9052C50.1334 25.5864 49.9084 25.3052 49.599 25.2395C47.5081 24.7707 45.3798 24.7895 43.3921 25.2395C43.0827 25.3052 42.8576 25.5864 42.8576 25.9052V28.6993C41.5919 29.1493 40.4199 29.8244 39.3979 30.6964L36.9789 29.2993C36.707 29.1399 36.3507 29.1962 36.1351 29.4306C34.7287 30.9495 33.6504 32.7872 33.0222 34.8124C32.9285 35.1218 33.0597 35.45 33.3316 35.6094L35.7506 37.0064C35.5069 38.3284 35.5069 39.6786 35.7506 41.0006L33.3316 42.3976C33.0504 42.557 32.9285 42.8851 33.0222 43.1945C33.6504 45.2198 34.7287 47.0481 36.1351 48.5764C36.3507 48.8108 36.6976 48.867 36.9789 48.7076L39.3979 47.3106C40.4199 48.1826 41.5919 48.8576 42.8576 49.3077V52.1017C42.8576 52.4205 43.0827 52.7018 43.3921 52.7674C45.4829 53.2362 47.6113 53.2175 49.599 52.7674C49.9084 52.7018 50.1334 52.4205 50.1334 52.1017V49.3077C51.3992 48.8576 52.5712 48.1826 53.5931 47.3106L56.0122 48.7076C56.2841 48.867 56.6403 48.8108 56.856 48.5764C58.2624 47.0575 59.3406 45.2198 59.9688 43.1945C60.0626 42.8851 59.9313 42.557 59.6594 42.3976L57.2404 41.0006V41.0006ZM46.5049 43.5508C43.9921 43.5508 41.9575 41.5069 41.9575 39.0035C41.9575 36.5001 44.0015 34.4561 46.5049 34.4561C49.0083 34.4561 51.0523 36.5001 51.0523 39.0035C51.0523 41.5069 49.0177 43.5508 46.5049 43.5508ZM21.0022 30.0025C27.631 30.0025 33.0035 24.6301 33.0035 18.0013C33.0035 11.3724 27.631 6 21.0022 6C14.3734 6 9.00095 11.3724 9.00095 18.0013C9.00095 24.6301 14.3734 30.0025 21.0022 30.0025ZM39.8667 51.2391C39.6511 51.1266 39.4354 50.9954 39.2291 50.8735L38.4884 51.3048C37.9259 51.6236 37.2883 51.8017 36.6507 51.8017C35.6288 51.8017 34.6443 51.3704 33.9411 50.6203C32.2253 48.7639 30.9126 46.5043 30.1719 44.0946C29.6563 42.4351 30.3501 40.6818 31.8502 39.8098L32.5909 39.3785C32.5816 39.1347 32.5816 38.891 32.5909 38.6472L31.8502 38.2159C30.3501 37.3533 29.6563 35.5906 30.1719 33.9311C30.2563 33.6592 30.3782 33.3873 30.472 33.1154C30.1157 33.0872 29.7688 33.0028 29.4031 33.0028H27.8373C25.7558 33.9592 23.44 34.503 21.0022 34.503C18.5645 34.503 16.258 33.9592 14.1671 33.0028H12.6013C5.64434 33.0028 0 38.6472 0 45.6042V49.5046C0 51.9892 2.01584 54.0051 4.50047 54.0051H37.504C38.4509 54.0051 39.3323 53.705 40.0542 53.2081C39.9417 52.8518 39.8667 52.4862 39.8667 52.1017V51.2391Z" fill="#3E4347"/>
</svg>
